/* XPM */
static char * coin_xpm[] = {
"64 64 323 2",
"  	c #683931",
". 	c #5C3630",
"+ 	c #573530",
"@ 	c #673931",
"# 	c #5F3730",
"$ 	c #603730",
"% 	c #653931",
"& 	c #613730",
"* 	c #523530",
"= 	c #583631",
"- 	c #543530",
"; 	c #663931",
"> 	c #5C3731",
", 	c #5F3731",
"' 	c #5A3630",
") 	c #623731",
"! 	c #633830",
"~ 	c #613831",
"{ 	c #553530",
"] 	c #593630",
"^ 	c #653830",
"/ 	c #523430",
"( 	c #643831",
"_ 	c #653831",
": 	c #503430",
"< 	c #663831",
"[ 	c #553630",
"} 	c #61352D",
"| 	c #542D26",
"1 	c #62362E",
"2 	c #593631",
"3 	c #080000",
"4 	c #572F28",
"5 	c #502B26",
"6 	c #3C201C",
"7 	c #41211C",
"8 	c #341915",
"9 	c #371A16",
"0 	c #412926",
"a 	c #5E3730",
"b 	c #3E211C",
"c 	c #36211D",
"d 	c #633831",
"e 	c #673830",
"f 	c #371F1B",
"g 	c #0C0201",
"h 	c #140702",
"i 	c #170A02",
"j 	c #190B02",
"k 	c #0A0100",
"l 	c #0D0201",
"m 	c #3C221E",
"n 	c #28110E",
"o 	c #26110E",
"p 	c #160705",
"q 	c #4E3513",
"r 	c #8E6529",
"s 	c #A57631",
"t 	c #B28035",
"u 	c #AF7E35",
"v 	c #33200A",
"w 	c #3D290C",
"x 	c #B28036",
"y 	c #A37430",
"z 	c #533914",
"A 	c #170806",
"B 	c #5A3029",
"C 	c #573C16",
"D 	c #9E712E",
"E 	c #B88437",
"F 	c #C68F3C",
"G 	c #C38D3B",
"H 	c #39240C",
"I 	c #452F0F",
"J 	c #C7903C",
"K 	c #B58236",
"L 	c #5C4017",
"M 	c #4E2923",
"N 	c #311F07",
"O 	c #3E290C",
"P 	c #4C3411",
"Q 	c #4F3612",
"R 	c #6B4B1D",
"S 	c #B07E34",
"T 	c #BA8638",
"U 	c #B78437",
"V 	c #35210B",
"W 	c #402B0D",
"X 	c #BB8738",
"Y 	c #C18B3A",
"Z 	c #A47630",
"` 	c #72501F",
" .	c #2B1A06",
"..	c #522B25",
"+.	c #62352E",
"@.	c #63362E",
"#.	c #7F5A23",
"$.	c #9F712E",
"%.	c #A0722F",
"&.	c #B98537",
"*.	c #65471A",
"=.	c #000000",
"-.	c #070000",
";.	c #060000",
">.	c #B17F34",
",.	c #C78F3C",
"'.	c #C08B3A",
").	c #714F1F",
"!.	c #160504",
"~.	c #7E5923",
"{.	c #9F722E",
"].	c #B88537",
"^.	c #66481A",
"/.	c #483110",
"(.	c #B17F35",
"_.	c #BF8A3A",
":.	c #704F1F",
"<.	c #180705",
"[.	c #5E332C",
"}.	c #5C322A",
"|.	c #503713",
"1.	c #8E6528",
"2.	c #A87932",
"3.	c #A97932",
"4.	c #C28C3A",
"5.	c #8C6428",
"6.	c #6D4C1D",
"7.	c #513713",
"8.	c #634519",
"9.	c #66471A",
"0.	c #765320",
"a.	c #B68336",
"b.	c #845E26",
"c.	c #2E1C06",
"d.	c #2A120E",
"e.	c #966B2C",
"f.	c #020000",
"g.	c #050000",
"h.	c #7E5A23",
"i.	c #B58336",
"j.	c #5D4017",
"k.	c #2E1511",
"l.	c #2A120F",
"m.	c #A67731",
"n.	c #69491C",
"o.	c #6A4A1D",
"p.	c #6B4A1D",
"q.	c #825C25",
"r.	c #865F26",
"s.	c #A27430",
"t.	c #7B5723",
"u.	c #040000",
"v.	c #2C1B07",
"w.	c #533913",
"x.	c #8F6629",
"y.	c #AA7A32",
"z.	c #BD8839",
"A.	c #A1732F",
"B.	c #8B6327",
"C.	c #896127",
"D.	c #271706",
"E.	c #2F1E07",
"F.	c #8C6328",
"G.	c #92682A",
"H.	c #AF7E34",
"I.	c #523913",
"J.	c #2F1D07",
"K.	c #2D1511",
"L.	c #5A3631",
"M.	c #593530",
"N.	c #24110F",
"O.	c #9C6F2D",
"P.	c #2D1C08",
"Q.	c #362309",
"R.	c #231311",
"S.	c #533530",
"T.	c #573630",
"U.	c #0E0401",
"V.	c #190C03",
"W.	c #190B03",
"X.	c #775421",
"Y.	c #946A2B",
"Z.	c #956A2B",
"`.	c #AE7D33",
" +	c #211204",
".+	c #3E290D",
"++	c #B48136",
"@+	c #0F0401",
"#+	c #613830",
"$+	c #3E290E",
"%+	c #715020",
"&+	c #714F20",
"*+	c #4C3413",
"=+	c #1E1004",
"-+	c #251505",
";+	c #261606",
">+	c #5F4219",
",+	c #976C2C",
"'+	c #966B2B",
")+	c #63451A",
"!+	c #493213",
"~+	c #412B0E",
"{+	c #412C0F",
"]+	c #775422",
"^+	c #4C3412",
"/+	c #4A3212",
"(+	c #452E0F",
"_+	c #683A32",
":+	c #544C4B",
"<+	c #504F4F",
"[+	c #4C4B4B",
"}+	c #38240C",
"|+	c #67481C",
"1+	c #523814",
"2+	c #402B0E",
"3+	c #543914",
"4+	c #573C15",
"5+	c #61431A",
"6+	c #6A4A1C",
"7+	c #4D3413",
"8+	c #3B270C",
"9+	c #0E0505",
"0+	c #494848",
"a+	c #554C4B",
"b+	c #693C35",
"c+	c #8D8988",
"d+	c #929292",
"e+	c #8B8B8B",
"f+	c #785522",
"g+	c #986D2C",
"h+	c #785421",
"i+	c #855F25",
"j+	c #986C2C",
"k+	c #543A16",
"l+	c #181212",
"m+	c #868686",
"n+	c #8B8786",
"o+	c #683A33",
"p+	c #7B6866",
"q+	c #7E6E6C",
"r+	c #7C6D6C",
"s+	c #656464",
"t+	c #4C4A4A",
"u+	c #3C280D",
"v+	c #4D3414",
"w+	c #62441A",
"x+	c #66471B",
"y+	c #593D18",
"z+	c #523815",
"A+	c #64461B",
"B+	c #6D4D1E",
"C+	c #60431A",
"D+	c #36230B",
"E+	c #555353",
"F+	c #656363",
"G+	c #7A6B69",
"H+	c #7A6764",
"I+	c #5D3830",
"J+	c #6D4943",
"K+	c #6E6D6D",
"L+	c #90672A",
"M+	c #7B7B7B",
"N+	c #908F8F",
"O+	c #6E4944",
"P+	c #412C10",
"Q+	c #91672A",
"R+	c #452E10",
"S+	c #6E4A45",
"T+	c #6A4039",
"U+	c #7A6765",
"V+	c #736765",
"W+	c #6D6C6C",
"X+	c #464444",
"Y+	c #241506",
"Z+	c #432D10",
"`+	c #5A3E17",
" @	c #503714",
".@	c #261605",
"+@	c #434141",
"@@	c #766867",
"#@	c #796562",
"$@	c #796563",
"%@	c #5E5E5E",
"&@	c #5B5959",
"*@	c #77605D",
"=@	c #7A6663",
"-@	c #5E5D5D",
";@	c #030000",
">@	c #5A5959",
",@	c #77615E",
"'@	c #807776",
")@	c #696868",
"!@	c #757575",
"~@	c #7E7371",
"{@	c #6A3F38",
"]@	c #847978",
"^@	c #827574",
"/@	c #807271",
"(@	c #6E6A6A",
"_@	c #2A2525",
":@	c #2A2626",
"<@	c #787575",
"[@	c #7E6F6D",
"}@	c #693B34",
"|@	c #909090",
"1@	c #735753",
"2@	c #837977",
"3@	c #837877",
"4@	c #827877",
"5@	c #807877",
"6@	c #71534F",
"7@	c #5C362F",
"8@	c #513530",
"9@	c #5B3630",
"0@	c #643931",
"a@	c #623830",
"b@	c #603830",
"c@	c #603831",
"d@	c #5F3831",
"e@	c #623831",
"f@	c #553531",
"g@	c #583630",
"h@	c #563530",
"                              . + @       # $ %                     & * = @                   # - ;                     >       ",
"                              & ,                                       % @                     '                       )       ",
"                        ! ~ ~ { ,                                                             ] '                     ^         ",
"                            ; / ,                                                             + '                               ",
"                              & ,                                                             . '                               ",
"                              ( ,                                                             $ '                               ",
"                              ( ,                                                               '                               ",
"                              ( >                                                             @ '                               ",
"                              ( / ; _                                                         @ '                               ",
"                              ( : , @                                                         @ '                               ",
"                              ( * <                                                           @ '                               ",
"                              ( [                                                             @ '                               ",
"                              ( [                                                             @ '                               ",
"                              ( [             } | | | | | | | | | | | | | | | | 1             @ '                               ",
"                              ( 2             | 3 3 3 3 3 3 3 3 3 3 3 3 3 3 3 3 4             @ '                               ",
"                              ( ,             | 3 3 3 3 3 3 3 3 3 3 3 3 3 3 3 3 4             @ '                               ",
"                              5 6 7 7 7 7 7 7 8 3 3 3 3 3 3 3 3 3 3 3 3 3 3 3 3 9 7 7 7 7 7 7 7 0 a                             ",
"                              b 3 3 3 3 3 3 3 3 3 3 3 3 3 3 3 3 3 3 3 3 3 3 3 3 3 3 3 3 3 3 3 3 c d                             ",
"                        @ e e f 3 3 3 3 3 3 3 g h h i j j k 3 k j j j j j i h h l 3 3 3 3 3 3 3 m e e                           ",
"                        4 n o p 3 3 3 3 3 3 3 q r r s t u v 3 w x t t t t y r r z 3 3 3 3 3 3 3 A n n B                         ",
"                        | 3 3 3 3 3 3 3 3 3 3 C D D E F G H 3 I J F F F F K D D L 3 3 3 3 3 3 3 3 3 3 4                         ",
"                  @ } } M 3 3 N O O P Q Q Q Q R D D S T U V 3 W X T X Y Y K Z Z ` Q Q Q Q P O O  .3 3 ..} +.@                   ",
"                  @.3 3 3 3 3 #.$.%.Y J J J J &.D D *.=.=.-.3 ;.=.=.I D D >.F F ,.J J J J '.D $.).3 3 3 3 !.@.                  ",
"                  @.3 3 3 3 3 ~.D {.'.F F F F ].D D ^.3 3 3 3 3 3 3 /.D D (.F F F F F F F _.D D :.3 3 3 3 <.@.                  ",
"              [.}.4 3 3  .|.|.1.2.3.4.F F F F (.5.5.6.|.7.8.9.9.9.9.0.3.2.a.F F F F F F F Y 2.2.b.|.|.c.3 !.4 }.[.              ",
"            e d.3 3 3 3 C $.D E F F F F F F F e.f.g.h.D {.'.F F F F F F F F F F F F F F F F F F i.D D j.3 3 3 3 k.              ",
"            e l.3 3 3 3 C D D E F F F F F F F e.g.3 ~.D {.'.F F F F F F F F F F F F F F F F F F K D D L 3 3 3 3 k.              ",
"            e l.3 3 3 3 C D D E F F F F F F F m.n.n.o.p.R q.r.r.r.r.r.r.r.s.F F F F F F F F F F K D D L 3 3 3 3 k.              ",
"            e l.3 3 3 3 C D D E F F F F F F F ].D D ^.3 3 3 3 3 3 3 3 3 3 t.F F F F F F F F F F K D D L 3 3 3 3 k.              ",
"            e l.3 3 3 3 C D D E F F F F F F F ].D D 9.;.;.3 3 3 ;.;.;.u.u.t.F F F F F F F F F F i.D D j.3 3 3 3 k.              ",
"            e l.3 3 3 3 v.w.w.x.3.y.4.F F F F G z.z.A.B.C.D.3 E.F.B.G.H.H.U F F F F F F F Y 3.3.r.I.w.J.3 3 3 3 K._             ",
"L.L.L.L.L.L.M.N.3 3 3 3 3 3 3 ~.D {.'.F F F F F F F H.D O.P.3 Q.{.D m.F F F F F F F F F F _.D D :.3 3 3 3 3 3 3 R.S.T.L.L.L.L.L.",
"{ @         e l.3 3 3 3 U.V.W.X.Y.Z.K T T T T z.G G `.D O.H  +.+{.D m.G G G G G z.T T T T ++Y.Y.R W.W.@+3 3 3 3 k.            #+",
"# ~         e l.3 3 3 3 $+%+&+*+=+=+-+;+;+;+;+>+A.A.{.D D ,+'+,+D D $.A.A.A.A.A.)+;+;+;+;+-+=+=+!+%+&+~+3 3 3 3 k.              ",
"#   _       e l.3 3 3 3 {+]+]+^+3 3 3 3 3 3 3 C D D D D D D D D D D D D D D D D L 3 3 3 3 3 3 3 /+]+]+(+3 3 3 3 k.              ",
"#           _+:+<+[+g.3 }+|+|+1+2+~+3+4+4+4+4+5+C.C.C.C.C.C.C.C.C.C.C.C.C.C.C.C.6+4+4+4+4+z 2+2+7+|+|+8+3 9+0+<+a+              ",
"#           b+c+d+e+=.3 3 3 3 >+]+f+g+D D D D h+;.-.-.-.-.-.-.-.-.-.-.-.-.-.-.-.i+D D D D j+]+]+k+-.3 3 3 l+m+d+n+              ",
"#           b+c+d+e+=.3 3 3 3 >+]+f+g+D D D D h+;.3 3 3 3 3 3 3 3 3 3 3 3 3 3 3 i+D D D D j+]+]+k+3 3 3 3 l+m+d+n+              ",
"#           o+p+q+r+s+s+t+-.3 u+*+v+w+x+x+x+x+y+z+z+A+B+B+B+B+B+B+B+B+B+B+w+z+z+C+x+x+x+x+w+*+*+D+3 3 E+s+F+G+q+H+            I+",
"#                 J+d+d+K+-.3 3 3 3 3 3 3 3 3 {+]+]+L+D D D D D D D D D D r ]+]+(+3 3 3 3 3 3 3 3 3 3 M+d+N+O+              ^   ",
"#                 J+d+d+K+;.-.3 3 3 3 3 3 3 3 P+]+]+Q+D D D D D D D D D D r ]+]+R+3 3 3 3 3 3 3 3 -.-.M+d+N+S+                  ",
"#                 T+U+H+V+W+W+X+3 3 3 3 3 3 3 Y+Z+Z+z+`+`+`+`+`+`+`+`+`+`+ @Z+Z+.@3 3 3 3 3 3 3 +@W+W+@@H+#@T+                  ",
"#                       $@d+d+%@3 3 3 3 3 3 3 3 3 3 3 3 3 3 3 3 3 3 3 3 3 3 3 3 3 3 3 3 3 3 3 3 &@d+d+*@                        ",
"#                       =@d+d+-@=.=.=.=.=.=.=.;@3 3 3 3 3 3 3 3 3 3 3 3 3 3 3 3 f.=.=.=.=.=.=.=.>@d+d+,@                        ",
"#                       T+S+S+'@e+e+e+e+e+e+e+)@-.3 3 3 3 3 3 3 3 3 3 3 3 3 3 3 !@e+e+e+e+e+e+e+~@S+S+{@                        ",
"#                             ]@d+d+d+d+d+d+d+K+-.3 3 3 3 3 3 3 3 3 3 3 3 3 3 3 M+d+d+d+d+d+d+d+^@                              ",
"#                             /@c+c+c+c+c+c+c+(@_@:@:@:@:@:@:@:@:@:@:@:@:@:@:@:@<@c+c+c+c+c+c+c+[@                              ",
"-                             }@b+b+b+b+b+b+b+$@|@|@|@|@|@|@|@|@|@|@|@|@|@|@|@|@,@b+b+b+b+b+b+b+}@                            _ ",
"+                                             $@d+d+d+d+d+d+d+d+d+d+d+d+d+d+d+d+*@                                          ! < ",
"# _                                           1@2@3@3@3@3@3@3@4@5@3@3@3@3@3@3@3@6@                                            ! ",
"#                                                             ( 7@                                                              ",
"#                                                             ( 7@                                                              ",
"#                                                             ( 7@                                                              ",
"#                                                             ( 7@                                                              ",
"#                                                             ( 7@                                                              ",
"#                                                             ( 7@                                                              ",
"#                                                             ( ]                                                               ",
"#                                                             ( 8@%                                                           d ",
"#                                                             ( 9@~ $ 0@                                                      a@",
"#                                                             ( 7@                                                            b@",
"#           ^                                                 ( 7@                                                              ",
"#         b@@                                                 ( 7@                                                              ",
".     ~ c@                        ; d d@                      e@]                                     d d             &       _ ",
": 2 S.2 L.L.L.L.L.L.L.L.L.L.L.L.L.f@S.: g@L.L.L.L.L.L.L.L.L.L.* : = L.L.L.L.L.L.L.L.L.L.L.L.L.L.L.L.T.L.L.L.L.L.L.L.L.h@L.L.L.- "};
