/* XPM */
static char * collect_xpm[] = {
"64 64 294 2",
"  	c #6F4035",
". 	c #714136",
"+ 	c #704035",
"@ 	c #734136",
"# 	c #724136",
"$ 	c #704135",
"% 	c #714135",
"& 	c #6D4034",
"* 	c #734236",
"= 	c #734336",
"- 	c #6E4034",
"; 	c #6C4034",
"> 	c #6E4035",
", 	c #6A3F33",
"' 	c #6B4034",
") 	c #6F4135",
"! 	c #683F33",
"~ 	c #6B3F33",
"{ 	c #693F33",
"] 	c #734436",
"^ 	c #734536",
"/ 	c #734636",
"( 	c #6A3F34",
"_ 	c #6C3D32",
": 	c #63372D",
"< 	c #724036",
"[ 	c #572F27",
"} 	c #080000",
"| 	c #703F34",
"1 	c #6D3E34",
"2 	c #5B3329",
"3 	c #5C332A",
"4 	c #45241D",
"5 	c #5A3128",
"6 	c #62362D",
"7 	c #6A3C32",
"8 	c #371B16",
"9 	c #714035",
"0 	c #552E26",
"a 	c #4E2A22",
"b 	c #442E0F",
"c 	c #6B4B1D",
"d 	c #7B5722",
"e 	c #865F26",
"f 	c #4C3412",
"g 	c #755220",
"h 	c #704F1E",
"i 	c #1C0E02",
"j 	c #27110D",
"k 	c #542E25",
"l 	c #5F352B",
"m 	c #6F3E34",
"n 	c #150504",
"o 	c #66471B",
"p 	c #9E712E",
"q 	c #B68336",
"r 	c #C68F3C",
"s 	c #72501F",
"t 	c #AD7C33",
"u 	c #A57731",
"v 	c #2A1A06",
"w 	c #43231C",
"x 	c #4C2921",
"y 	c #47261E",
"z 	c #0E0201",
"A 	c #311F08",
"B 	c #7E5923",
"C 	c #9F722E",
"D 	c #9C702E",
"E 	c #8F6629",
"F 	c #825C24",
"G 	c #493211",
"H 	c #714F1E",
"I 	c #A47530",
"J 	c #AF7E34",
"K 	c #B88437",
"L 	c #A0732F",
"M 	c #9C6F2D",
"N 	c #6D4C1D",
"O 	c #070000",
"P 	c #2A130F",
"Q 	c #4A2720",
"R 	c #5E342B",
"S 	c #180705",
"T 	c #3F2A0C",
"U 	c #A87932",
"V 	c #B58236",
"W 	c #6D4D1D",
"X 	c #876026",
"Y 	c #BF8A3A",
"Z 	c #C28C3B",
"` 	c #886127",
" .	c #060000",
"..	c #4D2922",
"+.	c #542D25",
"@.	c #100302",
"#.	c #190B03",
"$.	c #795621",
"%.	c #B78437",
"&.	c #BA8638",
"*.	c #A0722F",
"=.	c #6A4A1C",
"-.	c #74521F",
";.	c #7C5822",
">.	c #91682A",
",.	c #9C702D",
"'.	c #B07E34",
").	c #C38D3B",
"!.	c #C48E3B",
"~.	c #AB7A33",
"{.	c #68481B",
"].	c #321813",
"^.	c #2F1611",
"/.	c #211204",
"(.	c #9B6F2D",
"_.	c #A47630",
":.	c #8E6529",
"<.	c #795521",
"[.	c #B98537",
"}.	c #BE8939",
"|.	c #845E25",
"1.	c #7F5A24",
"2.	c #543A15",
"3.	c #63451A",
"4.	c #6A4A1D",
"5.	c #B68337",
"6.	c #532E25",
"7.	c #AE7D34",
"8.	c #542E26",
"9.	c #100401",
"0.	c #4D3512",
"a.	c #624419",
"b.	c #A57630",
"c.	c #8D6428",
"d.	c #503713",
"e.	c #7A5721",
"f.	c #A77831",
"g.	c #B17F35",
"h.	c #C18B3A",
"i.	c #A87831",
"j.	c #976B2C",
"k.	c #4F3612",
"l.	c #422C0D",
"m.	c #0A0100",
"n.	c #C58E3C",
"o.	c #C58F3C",
"p.	c #5B3F17",
"q.	c #0C0200",
"r.	c #8A6227",
"s.	c #BB8738",
"t.	c #9D702E",
"u.	c #886027",
"v.	c #170A03",
"w.	c #6A4A1E",
"x.	c #66471C",
"y.	c #2A1907",
"z.	c #2D1C08",
"A.	c #35220B",
"B.	c #A37530",
"C.	c #956A2B",
"D.	c #906629",
"E.	c #9A6E2D",
"F.	c #A2742F",
"G.	c #432D0F",
"H.	c #34210A",
"I.	c #39250D",
"J.	c #6D4C1F",
"K.	c #5A3F18",
"L.	c #693F34",
"M.	c #714235",
"N.	c #311914",
"O.	c #0D0505",
"P.	c #190C03",
"Q.	c #745221",
"R.	c #6F4E1F",
"S.	c #090000",
"T.	c #0D0300",
"U.	c #67471B",
"V.	c #2C1B06",
"W.	c #0B0200",
"X.	c #301E09",
"Y.	c #775422",
"Z.	c #63451B",
"`.	c #0A0202",
" +	c #553027",
".+	c #663E33",
"++	c #613D32",
"@+	c #643E32",
"#+	c #6B3F34",
"$+	c #8E8988",
"%+	c #929292",
"&+	c #1E1B1B",
"*+	c #301E08",
"=+	c #805B25",
"-+	c #9D712E",
";+	c #714F1F",
">+	c #110501",
",+	c #0B0100",
"'+	c #996D2C",
")+	c #765322",
"!+	c #66481C",
"~+	c #5B5A5A",
"{+	c #919191",
"]+	c #82706E",
"^+	c #5F3D31",
"/+	c #603D31",
"(+	c #8B8382",
"_+	c #908C8C",
":+	c #302B2B",
"<+	c #231F1F",
"[+	c #090101",
"}+	c #6D4D1F",
"|+	c #91672A",
"1+	c #1F1004",
"2+	c #251506",
"3+	c #291807",
"4+	c #211205",
"5+	c #1C0E04",
"6+	c #8D6529",
"7+	c #5E411A",
"8+	c #161010",
"9+	c #262121",
"0+	c #5F5B5B",
"a+	c #8F8B8B",
"b+	c #816C69",
"c+	c #613D31",
"d+	c #734338",
"e+	c #734337",
"f+	c #908F8F",
"g+	c #888888",
"h+	c #130C0C",
"i+	c #0D0301",
"j+	c #4D3413",
"k+	c #7D5924",
"l+	c #0D0201",
"m+	c #565555",
"n+	c #857775",
"o+	c #734238",
"p+	c #734237",
"q+	c #8E8A8A",
"r+	c #878484",
"s+	c #282222",
"t+	c #201B1B",
"u+	c #473011",
"v+	c #6E4D1F",
"w+	c #845D26",
"x+	c #92682A",
"y+	c #755221",
"z+	c #6E4E1F",
"A+	c #1C0F03",
"B+	c #0F0606",
"C+	c #231E1E",
"D+	c #595656",
"E+	c #8F8C8C",
"F+	c #847471",
"G+	c #673E33",
"H+	c #6F4034",
"I+	c #744339",
"J+	c #764E46",
"K+	c #8F8E8E",
"L+	c #878787",
"M+	c #050000",
"N+	c #0F0401",
"O+	c #3A3737",
"P+	c #887E7C",
"Q+	c #754A42",
"R+	c #8C8685",
"S+	c #868180",
"T+	c #424141",
"U+	c #2E2C2C",
"V+	c #403F3F",
"W+	c #524F4E",
"X+	c #8D8787",
"Y+	c #857774",
"Z+	c #78524B",
"`+	c #686868",
" @	c #020000",
".@	c #8E8E8E",
"+@	c #774E47",
"@@	c #8A8280",
"#@	c #8A8180",
"$@	c #6F6867",
"%@	c #484646",
"&@	c #474646",
"*@	c #887F7E",
"=@	c #867875",
"-@	c #826F6C",
";@	c #754940",
">@	c #7D615C",
",@	c #877B79",
"'@	c #867B79",
")@	c #72463C",
"!@	c #714335",
"~@	c #6D4035",
"    . + @ @ @ @ @ @ @ @ # @ @ @ @ @ @ @ @ @ @ @ # @ @ @ @ @ @ @ @ @ @ @ @ @ @ @ @ @ @ @ @ # $ % $ @ @ @ @ @ @ @ @ @ @ @ @ @ @ @ ",
"@ @ @ @ @ @ @ @ @ @ %   &   % % # @ @ @ @ @ @ @ @ @ @ @ @ @ * = = * @ @ @ @ @ @ @ @ @ @ @ @ @ @ @ @ # % @ @ @ @ @ @ @ @ @ @ @ @ ",
"@ @ @ @ @ @ @ @ @ @ # +   # # # @ @ @ @ @ @ @ @ @ @ @ @ @ @ @ * * @ @ @ @ @ @ @ @ @ @ @ @ @ @ @ @ + @ @ @ @ @ @ @ @ @ @ @ @ @ @ ",
"@ = @ @ @ @ @ @ @ @ @ @ # + @ @ @ @ @ @ @ @ @ @ @ @ @ @ @ @ @ @ @ @ @ @ @ % # @ @ @ @ @ @ @ @ @ @ @ @ @ @ @ @ @ @ * * = = * @ @ ",
"@ @ @ @ @ @ @ @ @ @ @ @ @ @ @ @ @ @ @ @ @ @ @ @ @ @ @ = @ @ @ @ @ @ @ @ * @ @ @ @ @ @ @ @ @ @ @ @ @ @ @ @ @ @ @ @ @ @ @ @ @ @ @ ",
"@ @ @ @ @ @ @ @ @ @ @ @ @ @ @ @ @ @ @ @ @ @ @ @ @ @ @ @ @ @ @ @ @ @ @ @ @ @ @ @ @ @ @ @ @ @ @ @ @ @ @ @ @ @ @ @ @ @ @ @ @ @ @ @ ",
"@ @ @ @ @ @ @ @ @ @ @ @ @ @ @ @ @ @ @ @ @ @ @ @ @ @ @ @ @ @ @ % $ $ % @ @ # @ @ @ @ @ @ @ @ @ @ @ @ @ @ @ @ @ @ @ @ @ @ @ @ @ @ ",
"@ @ @ @ @ @ @ @ @ @ @ @ @ @ @ @ @ @ @ @ @ @ #   - & & &     % # # %   - -     - % @ @ @ @ @ @ @ @ @ @ @ @ @ @ @ @ @ @ @ @ @ @ @ ",
"@ @ @ @ @ @ @ @ @ @ @ @ @ @ @ @ @ @ @ @ @ # - ; & & & & & & & & & & & & & & & & % @ @ @ @ @ @ @ @ @ @ @ @ @ @ @ @ @ @ @ @ @ @ @ ",
"@ @ @ @ @ @ @ @ @ @ @ % > # % @ @ @ @ @ @ @ $ & ; , & & & & & & & & & & ' -   ) @ @ @ @ @ @ @ @ @ @ @ @ @ @ @ @ @ @ @ @ @ @ @ @ ",
"@ @ @ @ @ @ @ @ @ @ @ @ @ @ @ @ @ @ @ @ @ @ @ # $ ; ! ' & ~ { , ; ' ' ' & % @ @ @ @ @ @ @ @ @ @ @ @ @ @ @ @ @ @ @ @ @ @ @ @ @ @ ",
"@ @ @ @ @ @ @ @ @ @ @ @ @ @ @ @ @ @ @ @ @ @ @ @ @ % $ $ $ $ # # $ ) - ) $ @ @ @ @ @ @ @ @ @ @ @ @ @ @ @ @ @ @ @ @ @ @ @ @ @ @ @ ",
"@ @ @ @ @ @ @ @ @ @ @ @ * @ * ] ^ = @ @ @ @ @ @ @ @ @ @ @ @ @ @ @ @ # % @ @ @ @ @ @ @ @ @ @ @ @ @ @ # $ $ $ $ - - $ @ @ @ @ @ @ ",
"@ @ @ @ @ @ @ @ @ @ * = ] / ^ = * @ @ @ @ @ @ @ @ @ @ @ @ @ @ @ @ @ @ @ @ @ @ @ @ @ @ @ . + @ @ @ @ @ @ @ @ @ # $ $ $ $ % @ @ @ ",
"@ @ @ @ @ @ @ @ @ @ @ = ^ ^ ^ = * @ @ @ @ @ @ @ @ @ @ @ * @ @ @ @ @ @ @ @ @ @ @ @ @ @ @ + ( @ @ @ @ @ @ @ @ @ @ @ @ @ @ @ @ @ @ ",
"@ @ @ @ @ @ @ @ @ @ @ @ @ @ @ @ @ @ @ @ @ @ @ @ @ @ @ @ @ @ @ @ @ @ @ @ @ @ @ @ @ @ @ @ @ . @ @ @ @ @ @ @ @ @ @ @ @ @ @ @ @ @ @ ",
"@ @ @ @ @ @ @ @ @ @ @ @ @ @ @ @ @ @ @ @ @ @ @ @ @ @ _ : : : : : : : : : : : < @ @ @ @ @ @ @ @ @ @ @ @ @ @ @ @ @ @ @ @ @ @ @ @ @ ",
"@ @ @ @ @ @ @ @ @ @ @ @ @ @ @ @ @ @ @ @ @ @ @ @ @ @ [ } } } } } } } } } } } | @ @ @ @ @ @ @ @ @ @ @ @ @ @ @ @ @ @ @ @ @ @ @ @ @ ",
"@ @ @ @ @ @ @ @ @ @ @ @ @ @ @ @ @ @ . + 1 2 3 2 3 3 4 } } } } } } } } } } } 5 3 3 3 3 6 @ @ @ @ @ @ @ @ @ @ @ @ @ @ @ @ @ @ @ @ ",
"@ @ @ @ @ @ @ @ @ @ @ @ @ @ @ @ @ @ # # 7 } } } } } } } } } } } } } } } } } } } } } } 8 @ @ @ @ @ @ @ @ @ @ @ @ @ @ @ @ @ @ @ @ ",
"@ @ @ @ @ @ @ @ @ @ @ @ @ @ @ @ @ @ 9 0 a } } } } } b c d e f } g e e e h c i } } } } j k l @ @ @ @ @ @ @ @ @ @ @ @ @ @ @ @ @ @ ",
"@ + ; % % % # @ @ # + $ @ @ @ @ @ @ m n } } } } } } o p q r s } t r r r u p v } } } } } } w @ @ @ @ @ @ @ @ @ @ @ @ @ # * * @ @ ",
"@ . # # . . # @ @ @ % . # + @ @ @ x y z A B e C C C D p E F G } H F I J q K L C C M B N O P Q R @ @ @ @ @ @ @ @ @ @ @ # * @ @ @ ",
"@ @ @ @ @ @ @ @ @ @ @ @ @ @ @ @ @ S } } T p U r r r V p W } } } } } X p Y r r r r Z p `  .} } ..@ @ @ $ # @ @ @ @ @ @ @ @ @ @ @ ",
"@ @ @ @ @ @ @ @ @ @ @ @ @ @ @ +.x @.#.$.e %.&.r r r *.=.-.;.>.,.,.,.'.%.).r r r r !.%.~.;.{.} ].x : - - + @ @ @ @ @ @ @ @ @ @ @ ",
"@ @ @ @ @ @ @ @ @ @ @ @ @ @ @ ^.} } /.(._.r r r r r :.} <.p [.r r r r r r r r r r r r }.p |.} } } 0 # @ @ @ @ @ @ @ @ @ @ @ * @ ",
"@ @ @ @ @ @ @ @ @ @ @ @ @ @ @ ^.} } /.(._.r r r r r U 1.=.2.3.4.4.4.4.4.5.r r r r r r }.p |.} } } 6.@ @ @ @ @ @ @ @ @ @ @ @ @ @ ",
"@ @ @ @ @ @ @ @ @ @ @ @ @ @ @ ^.} } /.(._.r r r r r V p W } } } } } }  .7.r r r r r r }.p |.} } } 8.@ @ @ @ @ @ @ @ @ @ @ @ @ @ ",
"@ @ @ @ @ @ @ @ @ @ @ @ @ @ @ ^.} } 9.0.a.U J r r r Z }.b.c.d.} e.c.f.g.h.r r r r ).i.j.k.l.} } } 0 @ @ @ @ @ @ @ @ @ @ @ @ @ @ ",
"@ @ @ @ @ @ @ @ @ @ @ @ @ @ @ ^.} } } m.T p f.n.n.n.o.r g.p p.q.r.p s.r r r n.n.n.h.t.u.} m.} } } 0 @ @ @ @ @ @ @ @ @ @ @ @ @ @ ",
"  >   @ @ @ @ @ @ @ * @ @ @ @ ^.} } v.w.x.y.z.A.A.A.s B.L p C.D.E.p F.B.B.I G.A.A.H.y.I.J.K.} } } 0 @ @ @ @ @ @ @ @ @ @ @ @ @ @ ",
"L.L.L.> @ @ @ @ @ % M.$ $ # @ N.O.} P.Q.R.S.q.T.T.T.U.p p p p p p p p p p p V.T.T.T.W.X.Y.Z.} `.O. +@ @ @ @ @ @ @ @ @ @ @ @ @ @ ",
".+++@+#+@ @ @ @ @ @ @ # @ @ @ $+%+&+} T.*+Y.=+-+-+-+;+>+>+>+>+>+>+>+>+>+>+,+'+-+-+E.)+!+q.q.} ~+{+]+@ @ @ @ @ @ @ @ @ @ @ @ @ @ ",
"^+^+/+  @ @ @ @ @ @ @ @ @ @ @ (+_+:+<+[+v }+)+|+|+|+4.1+2+3+3+3+3+3+3+3+4+5+c.|+|+6+J.7+O 8+9+0+a+b+@ @ @ @ @ @ @ @ @ @ @ @ @ @ ",
"c+c+.+# @ @ @ @ @ @ @ @ @ @ * d+e+f+g+h+} W.q.i+i+i+j+)+6+t.t.t.t.t.t.t.k+Y./.i+i+l+W.m.} m+{+n+o+p+@ # % + % @ @ @ @ @ @ @ @ @ ",
"+ . # @ @ @ @ @ @ @ @ @ @ @ @ @ @ q+r+s+t+} } } } } u+v+w+x+x+x+x+x+x+x+y+z+A+} } } } B+C+D+E+F+@ @ @ # > ! G+> @ % # @ @ @ @ @ ",
"# @ @ @ @ @ H+% @ @ @ @ @ @ @ @ @ I+J+K+L+M+} } } } m.i+N+9.9.9.9.9.9.9.i+i+} } } } } O+{+P+I+o+@ @ @ @ @ @ @ @ @ % $ $ # @ @ @ ",
"@ @ @ @ @ @ H+% @ @ @ @ @ @ @ @ @ @ Q+R+S+T+T+T+T+T+U+} } } } } } } } } } O V+T+T+T+T+W+X+Y+] ] * * @ @ @ @ @ @ @ @ @ @ @ @ @ @ ",
"@ @ @ @ @ @ @ @ @ @ @ @ @ @ @ @ @ @ @ @ Z+%+%+%+%+%+`+} } } } } } } } } }  @.@%+%+%+%+R+= = ^ = * * @ @ * @ @ @ @ @ @ @ @ @ @ @ ",
"@ @ @ @ @ @ @ @ @ @ @ @ @ @ @ @ @ @ @ @ +@@@#@#@#@#@$@%@%@%@%@%@%@%@%@%@%@&@*@#@#@#@#@=@@ @ @ @ @ @ @ @ @ @ @ @ @ @ @ @ @ @ @ @ ",
"@ @ @ @ @ @ @ @ @ @ @ @ @ @ @ @ @ @ @ @ @ @ @ @ @ @ -@%+%+%+%+%+%+%+%+%+%+%+;@@ @ @ @ @ @ @ @ # % # % @ @ @ @ @ @ @ @ @ @ @ @ @ ",
"@ @ @ @ @ @ @ @ @ @ @ @ @ @ @ @ @ @ @ @ @ @ @ @ @ @ >@,@,@,@,@,@,@,@,@,@,@'@)@$ # @ @ @ @ @ % % % # # @ @ @ @ @ @ @ @ @ @ % $ !@",
"@ @ @ @ @ @ @ @ @ @ @ @ @ @ @ @ @ @ @ @ @ @ @ @ @ @ @ @ @ @ @ @ @ @ @ @ @ @ @ @ @ @ @ @ @ @ @ @ @ @ @ @ @ @ @ @ @ @ @ @ @ # # * ",
"@ @ @ @ @ @ @ @ @ @ @ @ @ @ @ @ @ @ @ @ @ @ @ @ @ @ @ @ @ @ @ @ @ @ @ @ @ @ @ @ @ @ % @ @ @ @ @ @ @ @ @ @ @ @ @ @ @ @ @ @ @ @ @ ",
"@ @ @ @ @ @ @ @ @ @ @ @ @ @ @ @ @ @ @ @ @ @ @ @ @ @ @ # % # + $ # @ @ @ @ @ @ @ @ @ @ @ @ @ @ @ @ @ @ @ @ @ @ @ @ @ @ @ @ @ @ @ ",
"@ @ @ @ @ @ @ @ @ @ @ @ @ @ @ @ @ @ @ @ @ @ @ @ @ @ @ @ @ # % # @ @ @ @ @ @ @ @ @ @ @ @ @ @ @ @ @ @ @ @ @ @ @ @ @ @ @ @ @ @ @ @ ",
"@ @ @ @ @ # $ $ # @ @ @ * * @ @ @ * @ @ @ @ @ @ @ @ @ @ @ @ @ @ @ @ @ @ @ @ @ @ @ @ @ @ @ @ @ @ @ @ @ @ @ @ @ @ @ @ @ @ @ @ @ @ ",
"# @ @ @ @ @ @ @ @ @ @ @ = ^ ] = @ @ @ @ @ @ @ @ @ @ @ @ * @ @ @ @ @ @ @ @ @ @ @ @ @ * * @ @ @ @ @ @ @ % $ % $ + $ @ @ @ @ @ @ @ ",
"~@@ @ @ @ @ @ @ @ @ @ @ @ @ * @ @ @ @ @ @ @ @ @ @ @ @ @ @ @ @ @ @ @ @ @ @ @ @ @ @ @ @ @ @ @ @ @ # $ $ # # + - & - % @ @ @ @ @ @ ",
"# @ @ @ @ @ @ @ @ @ * = = = @ = @ @ @ #   % # @ @ @ @ @ @ @ @ @ @ @ @ @ @ @ @ @ @ @ @ @ @ @ @ % $ % - & - & &   @ @ @ @ @ @ @ @ ",
"@ @ @ @ @ @ @ @ @ @ @ @ @ @ @ @ @ @ # $ + + + + $ % @ @ @ @ @ @ @ # @ @ @ @ @ @ @ @ @ @ @ @ @ @ @ @ # @ @ @ @ @ @ @ @ @ @ % @ @ ",
"@ @ @ @ @ @ @ @ @ @ @ @ @ @ @ @ @ @ @ # % # @ @ @ @ # @ @ @ @ #   @+- + # * @ @ @ @ @ @ @ @ @ @ @ @ @ @ @ @ @ @ @ @ @ @ @ @ @ @ ",
"@ @ @ @ @ @ @ @ @ @ @ @ @ @ @ @ @ @ @ @ @ @ @ @ @ @ # @ @ @ @ # % % * ] ] ^ ^ * * @ @ @ @ @ @ @ @ @ @ @ @ @ * * = = = = = * * @ ",
"@ @ @ @ @ @ @ @ @ @ @ @ @ @ @ @ @ @ @ @ @ @ @ @ @ @ @ @ @ @ @ @ @ = ^ / / / / / ] @ @ @ @ @ @ @ @ @ @ @ @ @ @ @ @ @ @ * = = = * ",
"@ @ @ @ @ @ @ @ @ @ @ @ @ # % % @ @ @ @ @ @ @ @ @ @ @ @ @ @ @ @ @ @ @ * * * ] ^ ^ = @ @ @ @ @ @ @ @ @ @ @ @ @ @ @ @ @ @ @ @ @ @ ",
"@ @ @ @ @ @ @ @ @ @ @ @ @ @ @ @ @ @ @ @ @ @ @ @ @ @ @ @ @ @ @ * ] ^ ] ] = * @ @ * * @ @ @ @ @ @ @ @ @ @ @ @ @ @ @ @ @ @ @ @ @ @ ",
"@ @ @ @ @ @ @ @ @ @ 9 # @ @ @ @ @ @ @ @ @ @ @ @ @ @ @ @ @ @ @ @ @ * = = = = * @ @ @ @ @ @ @ @ @ @ @ @ @ @ @ @ @ @ @ @ @ @ @ @ @ ",
"@ @ @ @ @ # % @ @ @ @ @ @ @ @ @ @ @ @ @ @ # # @ @ @ @ @ @ @ @ @ @ @ @ @ @ @ @ @ @ @ @ @ @ @ @ @ @ @ @ @ @ @ @ @ @ @ @ @ @ @ @ @ ",
"@ @ @ @ # - - % @ @ @ @ @ @ @ @ @ @ % + $ $ $ $ @ @ @ @ @ @ @ @ @ @ @ @ @ @ @ @ @ @ @ @ @ @ @ @ @ @ @ @ @ @ @ @ @ @ @ @ @ @ @ @ ",
"@ @ @ @ @ # @ @ @ @ @ @ @ @ @ @ @ @ @ @ @ @ @ @ @ @ @ @ @ @ @ @ @ @ @ @ @ @ @ @ @ @ @ @ @ @ @ # @ @ @ % @ @ @ @ @ @ @ @ @ @ @ @ ",
"@ @ % - # @ @ @ @ @ @ @ @ @ @ @ @ @ @ @ @ @ @ @ @ @ @ @ @ @ @ @ @ @ @ @ @ @ @ @ @ @ @ @ @ @ @ @ @ @ @ $   # @ @ @ @ @ @ @ @ @ @ ",
"@ @ + % @ @ @ @ @ @ @ @ @ @ @ @ * @ @ @ @ @ @ @ @ @ @ = * @ @ @ @ @ @ @ @ @ @ @ @ @ @ @ @ @ @ @ @ @ @ @ @ @ @ @ @ @ @ @ @ @ @ @ ",
"@ @ @ @ @ @ @ @ @ @ @ @ @ @ @ @ @ @ @ @ @ @ @ @ @ @ @ * @ @ @ @ @ @ @ @ @ @ @ @ @ @ @ @ @ @ @ @ @ @ * @ @ @ @ @ @ @ @ @ @ * * @ ",
"@ @ @ @ @ @ @ @ @ @ @ @ @ @ @ @ @ @ @ @ @ @ @ @ @ @ @ @ @ @ @ @ @ @ @ @ @ @ @ @ @ @ @ @ @ @ @ @ @ @ @ @ @ @ @ @ @ @ @ @ @ @ @ @ "};
