/* XPM */
static char * door_opened_xpm[] = {
"64 64 686 2",
"  	c #683931",
". 	c #5C3630",
"+ 	c #573530",
"@ 	c #673931",
"# 	c #5F3730",
"$ 	c #603730",
"% 	c #653931",
"& 	c #613730",
"* 	c #523530",
"= 	c #583631",
"- 	c #543530",
"; 	c #663931",
"> 	c #5C3731",
", 	c #5F3731",
"' 	c #5A3630",
") 	c #623731",
"! 	c #633830",
"~ 	c #613831",
"{ 	c #553530",
"] 	c #593630",
"^ 	c #653830",
"/ 	c #523430",
"( 	c #643831",
"_ 	c #613832",
": 	c #603832",
"< 	c #5F3832",
"[ 	c #503531",
"} 	c #623932",
"| 	c #623A34",
"1 	c #5C3934",
"2 	c #60423E",
"3 	c #5F433F",
"4 	c #5E403C",
"5 	c #5C3B36",
"6 	c #603933",
"7 	c #66423D",
"8 	c #65433E",
"9 	c #603E3A",
"0 	c #5D3B37",
"a 	c #5E3B37",
"b 	c #5D3A36",
"c 	c #5D3B36",
"d 	c #5C3A35",
"e 	c #5A3934",
"f 	c #593834",
"g 	c #593935",
"h 	c #5B3D3A",
"i 	c #5B3F3C",
"j 	c #5A3B37",
"k 	c #5E3A35",
"l 	c #563631",
"m 	c #63423D",
"n 	c #5F413E",
"o 	c #5D3F3C",
"p 	c #5B3D39",
"q 	c #5C3D39",
"r 	c #643932",
"s 	c #593732",
"t 	c #4F3E3C",
"u 	c #524342",
"v 	c #534544",
"w 	c #4E3D3C",
"x 	c #4C3B3A",
"y 	c #463A39",
"z 	c #4A3938",
"A 	c #4D3B39",
"B 	c #564746",
"C 	c #5D5353",
"D 	c #635B5A",
"E 	c #615858",
"F 	c #58504F",
"G 	c #4E4342",
"H 	c #4B3C3A",
"I 	c #493A39",
"J 	c #5C4F4F",
"K 	c #5D5251",
"L 	c #554A4A",
"M 	c #4F4544",
"N 	c #504544",
"O 	c #4F4443",
"P 	c #4B3F3F",
"Q 	c #4A4040",
"R 	c #4E4443",
"S 	c #4C4141",
"T 	c #4A3E3E",
"U 	c #473D3C",
"V 	c #473C3B",
"W 	c #534949",
"X 	c #6E6666",
"Y 	c #5F5756",
"Z 	c #524949",
"` 	c #4D4241",
" .	c #4C3C3B",
"..	c #473938",
"+.	c #4E3F3D",
"@.	c #5B5050",
"#.	c #574F4E",
"$.	c #534B4B",
"%.	c #504747",
"&.	c #4F4545",
"*.	c #473A39",
"=.	c #563834",
"-.	c #663932",
";.	c #4F3532",
">.	c #4B4343",
",.	c #554F4F",
"'.	c #585252",
").	c #494343",
"!.	c #453F3F",
"~.	c #433D3D",
"{.	c #423C3C",
"].	c #565050",
"^.	c #676161",
"/.	c #666060",
"(.	c #635D5D",
"_.	c #595353",
":.	c #4C4646",
"<.	c #443E3E",
"[.	c #423B3B",
"}.	c #575151",
"|.	c #524C4C",
"1.	c #4D4747",
"2.	c #4E4747",
"3.	c #4D4646",
"4.	c #4B4545",
"5.	c #484242",
"6.	c #494344",
"7.	c #474041",
"8.	c #443D3D",
"9.	c #453E3E",
"0.	c #787272",
"a.	c #645E5E",
"b.	c #544E4E",
"c.	c #423A3A",
"d.	c #484141",
"e.	c #524B4C",
"f.	c #4F4949",
"g.	c #503835",
"h.	c #573632",
"i.	c #483E3D",
"j.	c #4A4343",
"k.	c #463F3F",
"l.	c #433B3A",
"m.	c #433A3A",
"n.	c #413939",
"o.	c #413938",
"p.	c #514B4B",
"q.	c #504A4A",
"r.	c #433B3B",
"s.	c #433736",
"t.	c #453937",
"u.	c #463937",
"v.	c #463938",
"w.	c #453938",
"x.	c #443838",
"y.	c #443837",
"z.	c #443937",
"A.	c #443938",
"B.	c #433938",
"C.	c #423838",
"D.	c #423737",
"E.	c #433937",
"F.	c #4A4342",
"G.	c #484343",
"H.	c #413635",
"I.	c #443836",
"J.	c #433C3C",
"K.	c #433939",
"L.	c #563835",
"M.	c #5F3831",
"N.	c #483836",
"O.	c #403939",
"P.	c #413A3A",
"Q.	c #423635",
"R.	c #4B3731",
"S.	c #543B34",
"T.	c #533A34",
"U.	c #483833",
"V.	c #423939",
"W.	c #433D3E",
"X.	c #443F40",
"Y.	c #453F40",
"Z.	c #433E3F",
"`.	c #42393A",
" +	c #433634",
".+	c #4F3730",
"++	c #5D3C35",
"@+	c #5E3C36",
"#+	c #5F3D36",
"$+	c #5F3E36",
"%+	c #5D3C36",
"&+	c #5B3C35",
"*+	c #583B33",
"=+	c #583B34",
"-+	c #573B34",
";+	c #513831",
">+	c #553A33",
",+	c #553932",
"'+	c #4A3631",
")+	c #423C3D",
"!+	c #443E3F",
"~+	c #403B3C",
"{+	c #403634",
"]+	c #4E362F",
"^+	c #5B3B34",
"/+	c #563A31",
"(+	c #473732",
"_+	c #413B3B",
":+	c #573935",
"<+	c #603831",
"[+	c #483736",
"}+	c #443633",
"|+	c #5F3B33",
"1+	c #6C4137",
"2+	c #5E3C34",
"3+	c #4B3A36",
"4+	c #493C38",
"5+	c #4D3D39",
"6+	c #503D39",
"7+	c #503C38",
"8+	c #503B37",
"9+	c #553A34",
"0+	c #653C33",
"a+	c #6F4237",
"b+	c #6F4338",
"c+	c #6D4338",
"d+	c #6F4438",
"e+	c #6D4337",
"f+	c #6B4136",
"g+	c #6D4237",
"h+	c #6A3F35",
"i+	c #6D4137",
"j+	c #6A4035",
"k+	c #603C33",
"l+	c #513933",
"m+	c #493935",
"n+	c #483936",
"o+	c #493B38",
"p+	c #483A37",
"q+	c #4D3833",
"r+	c #613B32",
"s+	c #6E4237",
"t+	c #653D33",
"u+	c #4C3934",
"v+	c #443B3B",
"w+	c #5C3833",
"x+	c #4B3A38",
"y+	c #463F3E",
"z+	c #463632",
"A+	c #633E35",
"B+	c #6F4439",
"C+	c #653E35",
"D+	c #5B3B33",
"E+	c #5C3C35",
"F+	c #5D3C34",
"G+	c #603D35",
"H+	c #623D35",
"I+	c #693F36",
"J+	c #6E4338",
"K+	c #6E4339",
"L+	c #6B4137",
"M+	c #6A4137",
"N+	c #704439",
"O+	c #6D4238",
"P+	c #6B4237",
"Q+	c #6F4339",
"R+	c #673F35",
"S+	c #5F3C33",
"T+	c #543830",
"U+	c #4E342D",
"V+	c #583A33",
"W+	c #623E35",
"X+	c #694036",
"Y+	c #633C33",
"Z+	c #4A3934",
"`+	c #474242",
" @	c #4C3C39",
".@	c #443430",
"+@	c #5A3830",
"@@	c #663E34",
"#@	c #653E34",
"$@	c #5E3A31",
"%@	c #5D3930",
"&@	c #603A31",
"*@	c #5C382F",
"=@	c #59362D",
"-@	c #5D382F",
";@	c #603B32",
">@	c #603A32",
",@	c #5F3A31",
"'@	c #5D3931",
")@	c #57352D",
"!@	c #55352D",
"~@	c #603B33",
"{@	c #5D3A31",
"]@	c #5B382F",
"^@	c #5B372F",
"/@	c #5E3931",
"(@	c #55332B",
"_@	c #4D2F28",
":@	c #59362E",
"<@	c #653D34",
"[@	c #663F35",
"}@	c #4F312A",
"|@	c #423430",
"1@	c #464041",
"2@	c #494444",
"3@	c #5A3732",
"4@	c #4C3C3A",
"5@	c #4A4444",
"6@	c #423230",
"7@	c #4B2F29",
"8@	c #4D3029",
"9@	c #52332C",
"0@	c #53342D",
"a@	c #4A2E27",
"b@	c #4E3029",
"c@	c #4F322A",
"d@	c #51322B",
"e@	c #4B2F28",
"f@	c #4C2F28",
"g@	c #52342D",
"h@	c #4F322B",
"i@	c #492E27",
"j@	c #482D26",
"k@	c #4E312A",
"l@	c #53342C",
"m@	c #52332B",
"n@	c #442B25",
"o@	c #40312E",
"p@	c #474142",
"q@	c #4B4546",
"r@	c #413330",
"s@	c #462D27",
"t@	c #50322B",
"u@	c #51332B",
"v@	c #51332C",
"w@	c #4D312A",
"x@	c #50312A",
"y@	c #492D26",
"z@	c #412A24",
"A@	c #3F302D",
"B@	c #4A3A38",
"C@	c #45403F",
"D@	c #3E3231",
"E@	c #442D26",
"F@	c #472C25",
"G@	c #3C2823",
"H@	c #3D2E2B",
"I@	c #464040",
"J@	c #433737",
"K@	c #663831",
"L@	c #623831",
"M@	c #4C3937",
"N@	c #3C3231",
"O@	c #432D26",
"P@	c #4B2F27",
"Q@	c #392723",
"R@	c #3B2C2A",
"S@	c #443C3C",
"T@	c #474141",
"U@	c #653831",
"V@	c #4D3836",
"W@	c #3C3332",
"X@	c #412B27",
"Y@	c #4E302A",
"Z@	c #50332C",
"`@	c #4C3029",
" #	c #492D27",
".#	c #3F2924",
"+#	c #382723",
"@#	c #3A2C29",
"##	c #423B3A",
"$#	c #633831",
"%#	c #484041",
"&#	c #494243",
"*#	c #3D3433",
"=#	c #3E2A26",
"-#	c #472D26",
";#	c #4A2F28",
">#	c #472C26",
",#	c #3B2823",
"'#	c #3A2B28",
")#	c #443A39",
"!#	c #4C3633",
"~#	c #544D4E",
"{#	c #5C5656",
"]#	c #3F3533",
"^#	c #392824",
"/#	c #422A25",
"(#	c #4E3129",
"_#	c #52332D",
":#	c #492F29",
"<#	c #452C26",
"[#	c #422A24",
"}#	c #382622",
"|#	c #453A39",
"1#	c #4C3634",
"2#	c #3E3432",
"3#	c #372724",
"4#	c #3C2824",
"5#	c #462E28",
"6#	c #432B25",
"7#	c #4A2F27",
"8#	c #452B26",
"9#	c #402A24",
"0#	c #51322C",
"a#	c #4C3028",
"b#	c #442B26",
"c#	c #422B25",
"d#	c #462C25",
"e#	c #4B2E27",
"f#	c #4B3029",
"g#	c #442C25",
"h#	c #462C26",
"i#	c #3E2924",
"j#	c #372623",
"k#	c #3A2A27",
"l#	c #453C3B",
"m#	c #4B4544",
"n#	c #453B3A",
"o#	c #583732",
"p#	c #633832",
"q#	c #4B3735",
"r#	c #3D3332",
"s#	c #382724",
"t#	c #442C26",
"u#	c #3D2925",
"v#	c #3A2924",
"w#	c #3B2924",
"x#	c #482E26",
"y#	c #472D27",
"z#	c #402B25",
"A#	c #3B2824",
"B#	c #3C2924",
"C#	c #3F2A25",
"D#	c #3A2723",
"E#	c #453C3C",
"F#	c #362522",
"G#	c #402A25",
"H#	c #382824",
"I#	c #3E2A25",
"J#	c #3D2A25",
"K#	c #372723",
"L#	c #392823",
"M#	c #432C25",
"N#	c #452C25",
"O#	c #3D2924",
"P#	c #462D26",
"Q#	c #3E2923",
"R#	c #443A3A",
"S#	c #573732",
"T#	c #392925",
"U#	c #352522",
"V#	c #3D2823",
"W#	c #3F2A24",
"X#	c #3A2824",
"Y#	c #372522",
"Z#	c #362622",
"`#	c #402B24",
" $	c #3A2823",
".$	c #412B25",
"+$	c #372622",
"@$	c #342421",
"#$	c #413838",
"$$	c #4B3837",
"%$	c #3E3434",
"&$	c #3A2925",
"*$	c #362623",
"=$	c #352421",
"-$	c #382823",
";$	c #362421",
">$	c #362621",
",$	c #3D2A24",
"'$	c #3E2A24",
")$	c #403837",
"!$	c #563733",
"~$	c #643830",
"{$	c #4E3A37",
"]$	c #3E3533",
"^$	c #352422",
"/$	c #403736",
"($	c #4F3C39",
"_$	c #392926",
":$	c #3F3534",
"<$	c #4F3C3A",
"[$	c #453D3D",
"}$	c #553733",
"|$	c #5A3631",
"1$	c #593631",
"2$	c #553531",
"3$	c #4A3B39",
"4$	c #382925",
"5$	c #3D3331",
"6$	c #443D3C",
"7$	c #463D3D",
"8$	c #4A3532",
"9$	c #4E3430",
"0$	c #533530",
"a$	c #573630",
"b$	c #563530",
"c$	c #493A38",
"d$	c #3C312F",
"e$	c #463E3E",
"f$	c #553833",
"g$	c #613830",
"h$	c #5E3731",
"i$	c #493937",
"j$	c #3C302F",
"k$	c #543833",
"l$	c #493735",
"m$	c #474040",
"n$	c #3B302F",
"o$	c #484040",
"p$	c #533835",
"q$	c #633730",
"r$	c #483734",
"s$	c #3F3634",
"t$	c #3B3130",
"u$	c #3F3635",
"v$	c #3C3131",
"w$	c #484142",
"x$	c #493734",
"y$	c #3E3433",
"z$	c #4B4444",
"A$	c #543834",
"B$	c #494242",
"C$	c #352521",
"D$	c #372825",
"E$	c #504949",
"F$	c #504848",
"G$	c #5D3830",
"H$	c #603731",
"I$	c #4A3735",
"J$	c #4E4848",
"K$	c #443C3B",
"L$	c #4E4646",
"M$	c #4C3736",
"N$	c #382825",
"O$	c #484140",
"P$	c #4E3936",
"Q$	c #4C4444",
"R$	c #382926",
"S$	c #413A39",
"T$	c #573733",
"U$	c #4F3A38",
"V$	c #382A27",
"W$	c #403938",
"X$	c #583833",
"Y$	c #4F3B39",
"Z$	c #3B312F",
"`$	c #382B28",
" %	c #473D3D",
".%	c #583832",
"+%	c #3C302E",
"@%	c #593832",
"#%	c #4A3C3A",
"$%	c #3C2F2D",
"%%	c #403838",
"&%	c #493C3B",
"*%	c #3B2F2D",
"=%	c #3F3837",
"-%	c #5B3631",
";%	c #493D3C",
">%	c #3B2E2D",
",%	c #3F3838",
"'%	c #543733",
")%	c #5C3631",
"!%	c #473B39",
"~%	c #342420",
"{%	c #342320",
"]%	c #392A27",
"^%	c #3E3636",
"/%	c #513734",
"(%	c #3D3231",
"_%	c #392A28",
":%	c #372926",
"<%	c #362825",
"[%	c #362725",
"}%	c #362826",
"|%	c #372A27",
"1%	c #362724",
"2%	c #352724",
"3%	c #352623",
"4%	c #342522",
"5%	c #342422",
"6%	c #3A2D2A",
"7%	c #3F3737",
"8%	c #4F3834",
"9%	c #623830",
"0%	c #5C3831",
"a%	c #4D3937",
"b%	c #4A4344",
"c%	c #605959",
"d%	c #4D4545",
"e%	c #473F3F",
"f%	c #473E3E",
"g%	c #413837",
"h%	c #524A4A",
"i%	c #453B3B",
"j%	c #403635",
"k%	c #3E3331",
"l%	c #3E3230",
"m%	c #423938",
"n%	c #443B3A",
"o%	c #463E3D",
"p%	c #4D3E3C",
"q%	c #593933",
"r%	c #623730",
"s%	c #573834",
"t%	c #534D4D",
"u%	c #6C6666",
"v%	c #7C7676",
"w%	c #756E6F",
"x%	c #595354",
"y%	c #504B4B",
"z%	c #595252",
"A%	c #60595A",
"B%	c #5D5758",
"C%	c #504A49",
"D%	c #4C4545",
"E%	c #4C3A37",
"F%	c #5D3630",
"G%	c #553834",
"H%	c #5D5757",
"I%	c #554E4E",
"J%	c #464141",
"K%	c #4A4242",
"L%	c #483938",
"M%	c #5B3731",
"N%	c #4F3836",
"O%	c #4A3B3A",
"P%	c #453A38",
"Q%	c #463837",
"R%	c #473837",
"S%	c #483837",
"T%	c #483838",
"U%	c #493938",
"V%	c #433A38",
"W%	c #403A3A",
"X%	c #41393A",
"Y%	c #483A3A",
"Z%	c #483A39",
"`%	c #483A38",
" &	c #5F3630",
".&	c #5A352F",
"+&	c #56342F",
"@&	c #54342F",
"#&	c #53352F",
"$&	c #583530",
"%&	c #56352F",
"&&	c #55342F",
"*&	c #52342F",
"=&	c #4D342F",
"-&	c #513531",
";&	c #4F3632",
">&	c #4D3532",
",&	c #4C3532",
"'&	c #4A3633",
")&	c #4B3533",
"!&	c #55352F",
"~&	c #593530",
"{&	c #5E3730",
"]&	c #58352F",
"^&	c #583630",
"/&	c #513530",
"(&	c #5B3630",
"_&	c #643931",
":&	c #5C362F",
"<&	c #603830",
"[&	c #663A32",
"}&	c #673932",
"|&	c #643A33",
"1&	c #613C37",
"2&	c #613D37",
"3&	c #623C36",
"4&	c #653B34",
"5&	c #663A33",
"6&	c #633A34",
"7&	c #5F3D38",
"8&	c #5F3D39",
"9&	c #603D38",
"0&	c #613D38",
"a&	c #643B35",
"b&	c #5B362F",
"c&	c #503430",
"                              . + @       # $ %                     & * = @                   # - ;                     >       ",
"                              & ,                                       % @                     '                       )       ",
"                        ! ~ ~ { ,                                                             ] '                     ^         ",
"                            ; / ,                                                             + '                               ",
"                              & ,                                                             . '                               ",
"                              ( ,                                                             $ '                               ",
"                              ( ,                                                               '                               ",
"                              ( >       @ @ @ @ @         @ @ @ @ @ @ @ @ @ @ @ @ @ @ @ @ @   @ '     @ @ @ @                   ",
"                    ; _ , : ~ < [ } _ | 1 2 3 4 5 6 : 7 8 9 0 a 0 b 1 1 b c d 1 e f g h i j k 6 l _ m n o p q 1 r               ",
"                  @ s t u v w x y z A B C D E F G H I J K L M N O G P Q R M S T U V W X Y Z `  ...+.@.#.$.%.&.*.=.;             ",
"                  -.;.>.,.'.).!.!.~.{.].^./.(._.:.<.[.}._.|.1.2.3.4.5.5.:.1.6.7.8.9.].0.a.b.4.8.c.d.'.].e.f.:.[.g.;             ",
"                  @ h.i.j.4.k.l.m.n.o.j.p.q.q.f.5.r.s.t.u.u.v.w.x.y.z.A.B.C.B.B.D.E.F.b.q.1.G.c.H.I.u.B.[.J.{.K.L.@             ",
"                    M.N.O.P.Q.R.S.T.U.V.W.X.Y.Z.`. +.+++@+#+$+@+%+&+*+=+-+;+>+-+,+'+s.)+!+W.~+{+]+^+/+(+V._+V.:+r               ",
"                  @ <+[+P.c.}+|+1+1+2+3+4+5+6+7+8+9+0+a+b+c+c+d+d+e+f+1+g+h+i+g+j+k+l+m+n+o+p+q+r+s+t+u+v+~.C.w+                ",
"                  @ <+x+!.y+z+A+B+B+C+D+E+^+D+F+G+H+I+J+K+L+M+N+N+O+L+O+K+P+Q+K+L+R+S+T+U+V+G+W+X+K+Y+Z+k.`+C.w+                ",
"                  @ <+ @5.d..@+@@@#@$@%@&@*@=@-@r+;@>@,@'@)@!@~@~@{@]@]@^@!@/@$@'@$@,@(@_@:@<@[@C+*@}@|@1@2@D.3@                ",
"                  @ <+4@5@5@6@7@8@8@8@9@0@8@a@b@9@9@c@9@d@e@f@9@0@g@h@f@i@j@8@}@}@k@8@i@i@8@l@0@m@a@n@o@p@q@D.3@@               ",
"                    <+H ).).r@s@f@k@t@0@0@8@e@k@0@0@u@0@v@8@8@0@0@0@g@h@a@a@t@9@g@9@t@a@w@9@0@0@x@y@z@A@p@:.D.3@;               ",
"                    ~ B@C@!.D@E@b@9@0@0@0@k@e@}@0@0@0@0@v@8@8@0@0@0@0@t@a@a@v@0@0@0@t@a@t@0@0@g@8@F@G@H@I@4.J@3@K@              ",
"                    L@M@<.<.N@O@}@0@0@0@0@w@e@k@0@0@0@0@h@f@8@0@0@0@0@h@a@a@d@0@0@g@8@i@t@0@0@9@P@n@Q@R@S@T@y.3@U@              ",
"                    L@V@9.!+W@X@Y@0@0@0@0@8@a@8@0@0@0@0@k@e@8@0@0@g@Z@f@j@j@w@g@0@9@`@j@8@t@g@9@ #.#+#@###!.A.3@U@              ",
"                    $#V@%#&#*#=#i@9@0@0@0@7@-#f@0@0@t@}@;#i@8@0@0@t@;#j@j@j@;#9@0@9@e@j@y@a@}@x@>#,#+#'#S@5.)#s U@              ",
"                    $#!#~#{#]#^#/#(#_#0@0@:#<#;#9@0@k@a@-#-#e@v@0@t@i@-#-#j@e@9@0@t@i@-#j@j@a@a@[#}#Q@'#S@5@|#s U@              ",
"                    $#1#3.|.2#3#4#-#8@t@0@5#6#-#8@k@7#8#9#z@j@k@0#a#b#c#d#j@e#}@t@f#g#h#j@j@j@-#i#j#^#k#l#m#n#o#U@              ",
"                    p#q#9.I@r#s#j#i#j@`@d@s@c#<#a@i@t#u#v#w#c#x#y#z#A#B#g#j@y@a@a@6#C#-#j@j@j@n@D#j#^#k#l#m#E#o#U@              ",
"                    _ N.8.9.r#^#F#Q@n@i@;#<#C#c#-#>#G#3#3#H#B#I#J#^#K#L#M#j@-#-#N#i#O#-#j@j@P#Q#F#K#^#k#R#j.E#S#U@              ",
"                    _ N.8.!.*#T#U#F#V#n@t#W#X#B#C#C#A#U#U#Y#+#^#^#+#Z#F#O#6#<#g#`# $A#<#j@>#.$+$@$j#^#k##$I@v+S#(               ",
"                    L@$$8.!.%$&$*$@$=$}#Q@+$Z#j#-$+#F#@$@$@$;$F#Z#>$@$@$*$L#A#w#L#+$L#,$'$u#^#U#@$Z#^#k#)$<.v+!$~$              ",
"                    L@{$k.!.]$&$*$@$@$@$@$@$@$@$@$@$@$@$@$@$@$@$@$@$@$@$@$@$=$^$=$U#*$Z#Z#U#@$@$@$j#^#k#/$8.r.!$$#              ",
"                    L@($).5.*#&$K#U#@$@$@$@$@$@$@$@$@$@$@$@$@$@$@$@$@$@$@$@$@$@$@$@$@$@$@$@$@$@$@$+#^#_$:$8.8.!$!               ",
"                  @ ~ <$).5.*#T#+#U#@$@$@$@$@$@$@$@$@$@$@$@$@$@$@$@$@$@$@$@$@$@$@$@$@$@$@$@$@$@$@$+#^#T#2#8.[$}$& U@            ",
"|$|$|$|$|$|$|$|$|$1$2$3$5.T@*#T#+#F#@$@$@$@$@$@$@$@$@$@$@$@$@$@$@$@$@$@$@$@$@$@$@$@$@$@$@$@$@$@$@$+#^#4$5$6$7$8$9$0$a$|$|$|$|$|$",
"{ @               @ b$c$T@T@]$T#+#F#@$@$@$@$@$@$@$@$@$@$@$@$@$@$@$@$@$@$@$@$@$@$@$@$@$@$@$@$@$@$@$+#^#4$d$~.e$f$!             g$",
"# ~               @ h$i$T@G.]$T#+#F#@$@$@$@$@$@$@$@$@$@$@$@$@$@$@$@$@$@$@$@$@$@$@$@$@$@$@$@$@$@$@$+#^#4$j$8.k.k$!               ",
"#   U@            @ M.l$m$).:$T#+#F#@$@$@$@$@$@$@$@$@$@$@$@$@$@$@$@$@$@$@$@$@$@$@$@$@$@$@$@$@$@$@$+#^#4$n$9.o$p$q$              ",
"#                 @ M.r$m$j.s$&$+#F#@$@$@$@$@$@$@$@$@$@$@$@$@$@$@$@$@$@$@$@$@$@$@$@$@$@$@$@$@$@$@$+#^#4$t$m$).p$q$              ",
"#                 K@M.r$T@5@u$&$+#F#@$@$@$@$@$@$@$@$@$@$@$@$@$@$@$@$@$@$@$@$@$@$@$@$@$@$@$@$@$@$@$+#^#4$v$w$5@p$!               ",
"#                 K@M.x$d.4.]$T#+#F#@$@$@$@$@$@$@$@$@$@$@$@$@$@$@$@$@$@$@$@$@$@$@$@$@$@$@$@$@$@$@$+#^#4$y$).z$A$~$              ",
"#                 K@<+x$B$3.2#T#+#F#@$@$@$@$@$@$@$@$@$@$@$@$@$@$@$@$@$@$@$@$@$@$@$@$@$@$@$@$@$@$C$H#+#D$l.E$F$}$(             G$",
"#                 K@H$I$5@J$2#T#+#F#@$@$@$@$@$@$@$@$@$@$@$@$@$@$@$@$@$@$@$@$@$@$@$@$@$@$@$@$@$@$Z#^#+#D$K$f.L$}$U@          ^   ",
"#                 K@H$M$z$J$2#T#+#F#@$@$@$@$@$@$@$@$@$@$@$@$@$@$@$@$@$@$@$@$@$@$@$@$@$@$@$@$@$@$*$^#+#N$m.5@O$!$U@              ",
"#                 K@H$P$Q$3.r#T#+#F#@$@$@$@$@$@$@$@$@$@$@$@$@$@$@$@$@$@$@$@$@$@$@$@$@$@$@$@$@$@$K#^#j#R$S$T@9.T$K@              ",
"#                 K@H$U$z$4.N@T#+#F#@$@$@$@$@$@$@$@$@$@$@$@$@$@$@$@$@$@$@$@$@$@$@$@$@$@$@$@$@$=$+#^#j#V$W$!.[$X$K@              ",
"#                 K@, Y$j.B$Z$T#+#F#@$@$@$@$@$@$@$@$@$@$@$@$@$@$@$@$@$@$@$@$@$@$@$@$@$@$@$@$@$C$+#^#K#`$W$<. %.%K@              ",
"#                 K@M.A m$9.+%T#+#F#@$@$@$@$@$@$@$@$@$@$@$@$@$@$@$@$@$@$@$@$@$@$@$@$@$@$@$@$@$C$+#^#K#`$W$<.U @%K@              ",
"#                 K@h$#%!.J.$%T#+#F#@$@$@$@$@$@$@$@$@$@$@$@$@$@$@$@$@$@$@$@$@$@$@$@$@$@$@$@$@$C$+#^#K#`$%%<.U @%K@              ",
"#                 K@> &%!.{.*%^#+#F#@$@$@$@$@$@$@$@$@$@$@$@$@$@$@$@$@$@$@$@$@$@$@$@$@$@$@$@$@$U#s#^#K#V$=%<. %X$U@              ",
"-                 @ -%;%I@~.>%+#+#Z#@$@$@$@$@$@$@$@$@$@$@$@$@$@$@$@$@$@$@$@$@$@$@$@$@$@$@$@$@$F#s#^#+#V$,%<.J.'%(             U@",
"+                 @ )%!%~.J.*%+#+$C$~%~%@$@${%{%{%~%~%~%~%@$@$@$@$@$@$@$@$@$@$@$@$@$@$@$@$@$@$C$+#^#+#]%^%_+n./%(           ! K@",
"# U@            @ ~$o#w._+P.(%'#_%V$:%<%[%[%}%V$V$|%:%:%1%2%2%2%3%U#4%5%5%@$5%U#2%<%<%<%<%[%[%D$_$]%_$6%7%P.n.8%9%@           ! ",
"#               ~$0%a%b%'.(.c%d%e%e%f%E#g%V.Q$h%E$y+[$K$i%l#l#l#g%j%y$k%l%d$l%:$m%l.r.r.r.n%n%v+K$K$K$o%T@5.5.p%q%!             ",
"#             @ r%s%l#t%u%v%w%x%y%f.f.1.T@z$z%A%B%J$:.4.2.E$C%E$z$B$d.d.O$m$O$B$z$D%:.:.:.:.3.1.2.J$J$f.f.f.f.B$E%F%@           ",
"#             @ & G%E#J$_.H%I%).T@I@9.8.~.9.w$z$D%z$5.!.I@5.j.5@5.T@T@5.5.5.5.d.T@J%m$m$m$I@T@d.B$K%5@4.4.4.4.I@L%' ;           ",
"#               ! M%N%O%V n#P%A.A.Q%R%R%R%S%S%S%T%U%w.y.y.w.w.P%V%)#|#|#|#)#R#c.P.n.O.O.O.O.W%P.X%m.y *.Y%Z%`%z '%$ @           ",
"#               @ ~$ &.&+&@&#&0$- b$$&$&= $&$&$&$&+ %&{ { &&&&*&=&- - - - - * -&;&>&,&'&'&'&)&>&;.-&@&!&+ + + ~&{&~$@           ",
"#                 @ @ K@U@( $#$#$#! ! ! ! $#$#$#$#$#$#$#! 9%9%# ]&L@$#$#$#$#L@~ ~ <+H$H$H$H$H$~ ~ L@9%L@9%9%! ( U@@             ",
"#                         @ @ @ @ @ @ @ @ @ @ @ @ @ @ @ @ ; ; $#^&@ @ @ @ @ ; ; K@K@K@K@K@K@K@K@@ @ @ ; ; ; @ @                 ",
"#                                                             ( /&%                                                           $#",
"#                                                             ( (&~ $ _&                                                      9%",
"#                                                             ( :&                                                            <&",
"# @ [&[&}&  ^   @ @ @ ; ; ; ; ; ; ; |&1&2&2&3&4&@   @ ; ; ; @ $#:&@                                                             ",
"# }&5&5&}&<&@   @ @ @ ; % % % % % % 6&7&8&9&0&a&}&  @ ; ; ; ; $#b&@ @                                                           ",
".     ~ <+                        ; $#M.                      L@]                                     $#$#            &       U@",
"c&1$0$1$|$|$|$|$|$|$|$|$|$|$|$|$|$2$0$c&^&|$|$|$|$|$|$|$|$|$|$* c&= |$|$|$|$|$|$|$|$|$|$|$|$|$|$|$|$a$|$|$|$|$|$|$|$|$b$|$|$|$- "};
