/* XPM */
static char * empty_xpm[] = {
"64 64 37 1",
" 	c #6F4035",
".	c #714136",
"+	c #704035",
"@	c #734136",
"#	c #724136",
"$	c #704135",
"%	c #714135",
"&	c #6D4034",
"*	c #734236",
"=	c #734336",
"-	c #6E4034",
";	c #6C4034",
">	c #6E4035",
",	c #6A3F33",
"'	c #6B4034",
")	c #6F4135",
"!	c #683F33",
"~	c #6B3F33",
"{	c #693F33",
"]	c #734436",
"^	c #734536",
"/	c #734636",
"(	c #6A3F34",
"_	c #6D4035",
":	c #693F34",
"<	c #714235",
"[	c #663E33",
"}	c #613D32",
"|	c #643E32",
"1	c #6B3F34",
"2	c #5F3D31",
"3	c #603D31",
"4	c #613D31",
"5	c #673E33",
"6	c #6F4034",
"7	c #714335",
"8	c #714035",
"  .+@@@@@@@@#@@@@@@@@@@@#@@@@@@@@@@@@@@@@@@@@#$%$@@@@@@@@@@@@@@@",
"@@@@@@@@@@% & %%#@@@@@@@@@@@@@*==*@@@@@@@@@@@@@@@@#%@@@@@@@@@@@@",
"@@@@@@@@@@#+ ###@@@@@@@@@@@@@@@**@@@@@@@@@@@@@@@@+@@@@@@@@@@@@@@",
"@=@@@@@@@@@@#+@@@@@@@@@@@@@@@@@@@@@@@%#@@@@@@@@@@@@@@@@@@**==*@@",
"@@@@@@@@@@@@@@@@@@@@@@@@@@@=@@@@@@@@*@@@@@@@@@@@@@@@@@@@@@@@@@@@",
"@@@@@@@@@@@@@@@@@@@@@@@@@@@@@@@@@@@@@@@@@@@@@@@@@@@@@@@@@@@@@@@@",
"@@@@@@@@@@@@@@@@@@@@@@@@@@@@@@@%$$%@@#@@@@@@@@@@@@@@@@@@@@@@@@@@",
"@@@@@@@@@@@@@@@@@@@@@@# -&&&  %##% --  -%@@@@@@@@@@@@@@@@@@@@@@@",
"@@@@@@@@@@@@@@@@@@@@@#-;&&&&&&&&&&&&&&&&%@@@@@@@@@@@@@@@@@@@@@@@",
"@@@@@@@@@@@%>#%@@@@@@@$&;,&&&&&&&&&&'- )@@@@@@@@@@@@@@@@@@@@@@@@",
"@@@@@@@@@@@@@@@@@@@@@@@#$;!'&~{,;'''&%@@@@@@@@@@@@@@@@@@@@@@@@@@",
"@@@@@@@@@@@@@@@@@@@@@@@@@%$$$$##$)-)$@@@@@@@@@@@@@@@@@@@@@@@@@@@",
"@@@@@@@@@@@@*@*]^=@@@@@@@@@@@@@@@@#%@@@@@@@@@@@@@@#$$$$--$@@@@@@",
"@@@@@@@@@@*=]/^=*@@@@@@@@@@@@@@@@@@@@@@@@@@@.+@@@@@@@@@#$$$$%@@@",
"@@@@@@@@@@@=^^^=*@@@@@@@@@@@*@@@@@@@@@@@@@@@+(@@@@@@@@@@@@@@@@@@",
"@@@@@@@@@@@@@@@@@@@@@@@@@@@@@@@@@@@@@@@@@@@@@.@@@@@@@@@@@@@@@@@@",
"@@@@@@@@@@@@@@@@@@@@@@@@@@@@@@@@@@@@@@@@@@@@@@@@@@@@@@@@@@@@@@@@",
"@@@@@@@@@@@@@@@@@@@@@@@@@@@@@@@@@@@@@@@@@@@@@@@@@@@@@@@@@@@@@@@@",
"@@@@@@@@@@@@@@@@@@.++%#%#@@@@@@@@@@@@@@@@@@@@@@@@@@@@@@@@@@@@@@@",
"@@@@@@@@@@@@@@@@@@######@@@@@@@@@@@@@@@@@@@@@@@@@@@@@@@@@@@@@@@@",
"@@@@@@@@@@@@@@@@@@@@@@@@@@@@@@@@@@@@@@@@@@@@@@@@@@@@@@@@@@@@@@@@",
"@+;%%%#@@#+$@@@@@@@@@@@@@@@@@@@@@@@#%@@@@@@@@@@@@@@@@@@@@@@#**@@",
"@.##..#@@@%.#+@@@@@@@@@@@@@@@%';%@-{'#@@@@@@@@@@@@@@@@@@@@@#*@@@",
"@@@@@@@@@@@@@@@@@@@@@@@@@@&{{!!!!{;+@@@@@@@@@@@@@@@$#@@@@@@@@@@@",
"@@@@@@@@@@@@@@@@@@@@@@@@@@@@+;((   @@@@@@@@@@@@@@@--+@@@@@@@@@@@",
"@@@@@@@@@@@@@@@@@@@@@@@@@@@@@@@@@@@@@@@@@@@@@@@@@@#@@@@@@@@@@@*@",
"@@@@@@@@@@@@@@@@@@@@#@@@@@@@@@@@@@@@@@@@@@@@@@@#-%@@@@@@@@@@@@@@",
"@@@@@@@@@@@@@@@@@@@@_#@@@@@@@@@@@@@@@@@@@@@@@@@$%#@@@@@@@@@@@@@@",
"@@@@@@@@@@@@@@@@@@@@@@@@@@@@@@@@@@@@@@@@@@@@@@@@@@@@@@@@@@@@@@@@",
"@@@@@@@@@@@@@@@@@@@@@@@@@@@@@@@@@@@@@@@@@@@@@@@@@@@@@@@@@@@@@@@@",
" > @@@@@@@*@@@@@@***@@@@**@@@@@@@@@@@@@@@@@@@@@@@@@@@@@@@@@@@@@@",
":::>@@@@@%<$$#@@@@@@@@@@@*@@@@@@@@@@@@@@@@@@@@@@@*@@@@@@@@@@@@@@",
"[}|1@@@@@@@#@@@@@@@@@@@@@@@@@@@@@@@@@@@@@@@@@@@@@@@@@@@@@@@@@@@@",
"223 @@@@@@@@@@@@@******@@@@@@@@@@@@@@@@@@@@@@@@@@@@@@@@@@@@@@@@@",
"44[#@@@@@@@@@@***@**=**@@@@@@@@@@@@@@@@@@@@@@@@@@@@#%+%@@@@@@@@@",
"+.#@@@@@@@@@@@@@@@***@@@@@@@@@@@@@@@@@@@@@@@@@@@@@@#>!5>@%#@@@@@",
"#@@@@@6%@@@@@@@@@@@@@@@@@@@@@@@@@@@@@@@@@##@@@@@@@@@@@@@@%$$#@@@",
"@@@@@@6%@@@@@@@@@@@@@@@@##@@@@@@@@@@@@@@@@@@@=]]**@@@@@@@@@@@@@@",
"@@@@@@@@@@@@@@@@@@@@@@@@ %@@@@@@@@@@@@@@@@@===^=**@@*@@@@@@@@@@@",
"@@@@@@@@@@@@@@@@@@@@@@@@@@@@@@@@@@@@@@@@@@@@@@@@@@@@@@@@@@@@@@@@",
"@@@@@@@@@@@@@@@@@@@@@@@@@@@@@@@@@@@@@@@@@@@@@@@#%#%@@@@@@@@@@@@@",
"@@@@@@@@@@@@@@@@@@@@@@@@@@@@@@@@@@@@@$$$#@@@@@%%%##@@@@@@@@@@%$7",
"@@@@@@@@@@@@@@@@@@@@@@@@@@@@@@@@@@@@@@@@@@@@@@@@@@@@@@@@@@@@@##*",
"@@@@@@@@@@@@@@@@@@@@@@@@@@@@@@@@@@@@@@@@@@%@@@@@@@@@@@@@@@@@@@@@",
"@@@@@@@@@@@@@@@@@@@@@@@@@@@#%#+$#@@@@@@@@@@@@@@@@@@@@@@@@@@@@@@@",
"@@@@@@@@@@@@@@@@@@@@@@@@@@@@@#%#@@@@@@@@@@@@@@@@@@@@@@@@@@@@@@@@",
"@@@@@#$$#@@@**@@@*@@@@@@@@@@@@@@@@@@@@@@@@@@@@@@@@@@@@@@@@@@@@@@",
"#@@@@@@@@@@@=^]=@@@@@@@@@@@@*@@@@@@@@@@@@@**@@@@@@@%$%$+$@@@@@@@",
"_@@@@@@@@@@@@@*@@@@@@@@@@@@@@@@@@@@@@@@@@@@@@@@@#$$##+-&-%@@@@@@",
"#@@@@@@@@@*===@=@@@# %#@@@@@@@@@@@@@@@@@@@@@@@@%$%-&-&& @@@@@@@@",
"@@@@@@@@@@@@@@@@@@#$++++$%@@@@@@@#@@@@@@@@@@@@@@@@#@@@@@@@@@@%@@",
"@@@@@@@@@@@@@@@@@@@#%#@@@@#@@@@# |-+#*@@@@@@@@@@@@@@@@@@@@@@@@@@",
"@@@@@@@@@@@@@@@@@@@@@@@@@@#@@@@#%%*]]^^**@@@@@@@@@@@@@**=====**@",
"@@@@@@@@@@@@@@@@@@@@@@@@@@@@@@@@@=^/////]@@@@@@@@@@@@@@@@@@*===*",
"@@@@@@@@@@@@@#%%@@@@@@@@@@@@@@@@@@@***]^^=@@@@@@@@@@@@@@@@@@@@@@",
"@@@@@@@@@@@@@@@@@@@@@@@@@@@@@@@*]^]]=*@@**@@@@@@@@@@@@@@@@@@@@@@",
"@@@@@@@@@@8#@@@@@@@@@@@@@@@@@@@@@*====*@@@@@@@@@@@@@@@@@@@@@@@@@",
"@@@@@#%@@@@@@@@@@@@@@##@@@@@@@@@@@@@@@@@@@@@@@@@@@@@@@@@@@@@@@@@",
"@@@@#--%@@@@@@@@@@%+$$$$@@@@@@@@@@@@@@@@@@@@@@@@@@@@@@@@@@@@@@@@",
"@@@@@#@@@@@@@@@@@@@@@@@@@@@@@@@@@@@@@@@@@@@@@@@#@@@%@@@@@@@@@@@@",
"@@%-#@@@@@@@@@@@@@@@@@@@@@@@@@@@@@@@@@@@@@@@@@@@@@@$ #@@@@@@@@@@",
"@@+%@@@@@@@@@@@@*@@@@@@@@@@=*@@@@@@@@@@@@@@@@@@@@@@@@@@@@@@@@@@@",
"@@@@@@@@@@@@@@@@@@@@@@@@@@@*@@@@@@@@@@@@@@@@@@@@@@*@@@@@@@@@@**@",
"@@@@@@@@@@@@@@@@@@@@@@@@@@@@@@@@@@@@@@@@@@@@@@@@@@@@@@@@@@@@@@@@"};
