/* XPM */
static char * andre_theophilo_lima_filho_biome_2_ground_tileset_xpm[] = {
"64 64 57 1",
" 	c #683931",
".	c #5C3630",
"+	c #573530",
"@	c #673931",
"#	c #5F3730",
"$	c #603730",
"%	c #653931",
"&	c #613730",
"*	c #523530",
"=	c #583631",
"-	c #543530",
";	c #663931",
">	c #5C3731",
",	c #5F3731",
"'	c #5A3630",
")	c #623731",
"!	c #633830",
"~	c #613831",
"{	c #553530",
"]	c #593630",
"^	c #653830",
"/	c #523430",
"(	c #643831",
"_	c #653831",
":	c #503430",
"<	c #663831",
"[	c #553630",
"}	c #593631",
"|	c #5E3730",
"1	c #50342F",
"2	c #633831",
"3	c #583630",
"4	c #5B3630",
"5	c #563530",
"6	c #5E3731",
"7	c #513530",
"8	c #5C3730",
"9	c #513430",
"0	c #693931",
"a	c #693932",
"b	c #5D3730",
"c	c #5A3631",
"d	c #533530",
"e	c #533430",
"f	c #573630",
"g	c #5D3731",
"h	c #613830",
"i	c #5C362F",
"j	c #5D3830",
"k	c #543531",
"l	c #623830",
"m	c #643931",
"n	c #603830",
"o	c #603831",
"p	c #5F3831",
"q	c #623831",
"r	c #553531",
"               .+@   #$%          &*=@         #-;          >   ",
"               &,                   %@          '           )   ",
"            !~~{,                              ]'          ^    ",
"              ;/,                              +'               ",
"               &,                              .'               ",
"               (,                              $'               ",
"               (,                               '               ",
"               (>                              @'               ",
"               (/;_                            @'               ",
"               (:,@                            @'               ",
"               (*<                             @'               ",
"               ([                              @'               ",
"               ([                              @'               ",
"               ([                              @'               ",
"               (}                              @'               ",
"               (,                              @'               ",
"               (,                              @:|              ",
"               &,                              @12              ",
"               3,                              @'               ",
"              (4,                             @5'               ",
"               6,                              @'               ",
"               $,                              @'               ",
"               (,                              @'               ",
"               (+@                             @'               ",
"               (+@                             @'               ",
"               (,                              @'               ",
"               (,                              @'               ",
"              %7,                              @'               ",
"            ($89,                              @'               ",
"           <20a>,                              @'   !           ",
"               &>                      _&      _+ b~   _<_      ",
"ccccccccccccccc9:3cccccccccccccccccccc}::-ccccc/:d:'ccce:dfccccc",
"{@        4.          @+@      g{@         @(                  h",
"#~        <2           !       (i                               ",
"# _                            (i                               ",
"#                              (i                               ",
"#                              (i                               ",
"#                              (i                               ",
"#                              (i                              j",
"#                              (i                             ^ ",
"#                              (k                               ",
"#                              (f2@                             ",
"#                              (]                               ",
"#                              'i                               ",
"#                             @4i                               ",
"#                              (]                               ",
"#                              (*(;                             ",
"-                              (7l                             _",
"+                              (]                             !<",
"#_                             (i                              !",
"#                              (i                               ",
"#                              (i                               ",
"#                              (i                               ",
"#                              (i                               ",
"#                              (i                               ",
"#                              (i                               ",
"#                              (]                               ",
"#                              (7%                             2",
"#                              (4~$m                           l",
"#                              (i                              n",
"#     ^                        (i                               ",
"#    n@                        (i                               ",
".  ~o            ;2p           q]                  22      &   _",
":}d}cccccccccccccrd:3cccccccccc*:=ccccccccccccccccfcccccccc5ccc-"};
