/* XPM */
static char * enemy_xpm[] = {
"64 64 656 2",
"  	c #683931",
". 	c #5C3630",
"+ 	c #573530",
"@ 	c #673931",
"# 	c #5F3730",
"$ 	c #603730",
"% 	c #653931",
"& 	c #613730",
"* 	c #523530",
"= 	c #583631",
"- 	c #543530",
"; 	c #663931",
"> 	c #5C3731",
", 	c #5F3731",
"' 	c #5A3630",
") 	c #623731",
"! 	c #633830",
"~ 	c #613831",
"{ 	c #553530",
"] 	c #593630",
"^ 	c #653830",
"/ 	c #523430",
"( 	c #663830",
"_ 	c #64372F",
": 	c #62352E",
"< 	c #61352D",
"[ 	c #63362F",
"} 	c #643831",
"| 	c #522C25",
"1 	c #3C1F1A",
"2 	c #351A16",
"3 	c #341A15",
"4 	c #3A1D18",
"5 	c #512B24",
"6 	c #64362F",
"7 	c #673830",
"8 	c #65372F",
"9 	c #63362E",
"0 	c #4E2923",
"a 	c #200D0A",
"b 	c #000000",
"c 	c #010101",
"d 	c #200E0B",
"e 	c #5F342C",
"f 	c #4D2922",
"g 	c #3D1F1A",
"h 	c #3C1E19",
"i 	c #371C17",
"j 	c #24100D",
"k 	c #020202",
"l 	c #1E1E1E",
"m 	c #454545",
"n 	c #3D3D3D",
"o 	c #151515",
"p 	c #0E0403",
"q 	c #44241E",
"r 	c #5C332C",
"s 	c #3D201B",
"t 	c #120604",
"u 	c #0D0504",
"v 	c #0C0403",
"w 	c #0B0302",
"x 	c #040101",
"y 	c #090909",
"z 	c #5B5B5B",
"A 	c #909090",
"B 	c #7C7C7C",
"C 	c #313131",
"D 	c #0F0706",
"E 	c #42221D",
"F 	c #4E322E",
"G 	c #412420",
"H 	c #090302",
"I 	c #030303",
"J 	c #232323",
"K 	c #2F2F2F",
"L 	c #202020",
"M 	c #191919",
"N 	c #484848",
"O 	c #888888",
"P 	c #979797",
"Q 	c #777777",
"R 	c #2C2C2C",
"S 	c #0E0605",
"T 	c #43231D",
"U 	c #472D29",
"V 	c #26120E",
"W 	c #050505",
"X 	c #6F6F6F",
"Y 	c #818181",
"Z 	c #676767",
"` 	c #5C5C5C",
" .	c #707070",
"..	c #7F7F7F",
"+.	c #555555",
"@.	c #2E2E2E",
"#.	c #040404",
"$.	c #190A07",
"%.	c #4C2822",
"&.	c #432925",
"*.	c #1C0B08",
"=.	c #111111",
"-.	c #565656",
";.	c #9B9B9B",
">.	c #9D9D9D",
",.	c #8F8F8F",
"'.	c #8C8C8C",
").	c #8A8A8A",
"!.	c #545454",
"~.	c #381C17",
"{.	c #462C27",
"].	c #1F0D0A",
"^.	c #0B0B0B",
"/.	c #474747",
"(.	c #898989",
"_.	c #797979",
":.	c #424242",
"<.	c #3A3A3A",
"[.	c #606060",
"}.	c #060606",
"|.	c #43221D",
"1.	c #5B312A",
"2.	c #5E332B",
"3.	c #593029",
"4.	c #5C322B",
"5.	c #5F332C",
"6.	c #62362E",
"7.	c #4D302B",
"8.	c #331915",
"9.	c #020100",
"0.	c #171717",
"a.	c #282828",
"b.	c #080808",
"c.	c #4D4D4D",
"d.	c #070202",
"e.	c #2F1713",
"f.	c #220F0B",
"g.	c #210E0B",
"h.	c #27120E",
"i.	c #2F1712",
"j.	c #381C18",
"k.	c #44231E",
"l.	c #080303",
"m.	c #090605",
"n.	c #0B0504",
"o.	c #6D6D6D",
"p.	c #0F0504",
"q.	c #110504",
"r.	c #030100",
"s.	c #040201",
"t.	c #020101",
"u.	c #020000",
"v.	c #060201",
"w.	c #331914",
"x.	c #653730",
"y.	c #502A24",
"z.	c #321814",
"A.	c #292929",
"B.	c #383838",
"C.	c #010000",
"D.	c #060101",
"E.	c #1F0505",
"F.	c #270707",
"G.	c #280707",
"H.	c #280606",
"I.	c #230606",
"J.	c #220707",
"K.	c #230909",
"L.	c #290909",
"M.	c #210707",
"N.	c #160404",
"O.	c #4A2721",
"P.	c #61352E",
"Q.	c #60342D",
"R.	c #482620",
"S.	c #160806",
"T.	c #070505",
"U.	c #030000",
"V.	c #170505",
"W.	c #390F0F",
"X.	c #601A1A",
"Y.	c #772020",
"Z.	c #802222",
"`.	c #812222",
" +	c #7D2121",
".+	c #731E1E",
"++	c #671C1C",
"@+	c #651B1B",
"#+	c #671B1B",
"$+	c #611A1A",
"%+	c #4B1515",
"&+	c #2D0C0C",
"*+	c #110404",
"=+	c #472620",
"-+	c #4C312D",
";+	c #5E3730",
">+	c #070101",
",+	c #2C0B0B",
"'+	c #5B1818",
")+	c #7E2121",
"!+	c #992828",
"~+	c #B22E2E",
"{+	c #BD3131",
"]+	c #C03232",
"^+	c #922727",
"/+	c #7A2020",
"(+	c #792020",
"_+	c #731F1F",
":+	c #551717",
"<+	c #290A0A",
"[+	c #050202",
"}+	c #1A0B08",
"|+	c #3A2421",
"1+	c #60362F",
"2+	c #583630",
"3+	c #572F28",
"4+	c #140606",
"5+	c #461111",
"6+	c #6C1C1C",
"7+	c #8D2525",
"8+	c #AE2E2E",
"9+	c #BF3232",
"0+	c #C53333",
"a+	c #C43333",
"b+	c #BC3131",
"c+	c #7B2020",
"d+	c #8A2424",
"e+	c #952727",
"f+	c #902626",
"g+	c #7B2121",
"h+	c #3A0E0E",
"i+	c #060202",
"j+	c #21100E",
"k+	c #532C26",
"l+	c #5B3630",
"m+	c #542D26",
"n+	c #030101",
"o+	c #130404",
"p+	c #350C0C",
"q+	c #5C1818",
"r+	c #822222",
"s+	c #A72C2C",
"t+	c #C33333",
"u+	c #AE2D2D",
"v+	c #872424",
"w+	c #AC2D2D",
"x+	c #B93030",
"y+	c #A32B2B",
"z+	c #832323",
"A+	c #6F1E1E",
"B+	c #370D0D",
"C+	c #311813",
"D+	c #5D322B",
"E+	c #5E3731",
"F+	c #230F0C",
"G+	c #0A0101",
"H+	c #260909",
"I+	c #561616",
"J+	c #A62C2C",
"K+	c #BB3030",
"L+	c #C13232",
"M+	c #B72F2F",
"N+	c #BB3131",
"O+	c #782020",
"P+	c #681C1C",
"Q+	c #340B0B",
"R+	c #2B0B0B",
"S+	c #711E1E",
"T+	c #A02A2A",
"U+	c #B83030",
"V+	c #B52F2F",
"W+	c #932727",
"X+	c #BE3232",
"Y+	c #591818",
"Z+	c #250707",
"`+	c #1A0A08",
" @	c #5E3630",
".@	c #512B25",
"+@	c #1B0B08",
"@@	c #1A0606",
"#@	c #6D1D1D",
"$@	c #C33232",
"%@	c #BA3030",
"&@	c #982828",
"*@	c #802121",
"=@	c #9E2929",
"-@	c #B42F2F",
";@	c #A12A2A",
">@	c #761F1F",
",@	c #4B1414",
"'@	c #0A0303",
")@	c #51312C",
"!@	c #471212",
"~@	c #9D2929",
"{@	c #C23232",
"]@	c #C13333",
"^@	c #BA3131",
"/@	c #B12E2E",
"(@	c #AA2C2C",
"_@	c #7C2121",
":@	c #832222",
"<@	c #300B0B",
"[@	c #050201",
"}@	c #492721",
"|@	c #452925",
"1@	c #1E0606",
"2@	c #741E1E",
"3@	c #B73030",
"4@	c #C23333",
"5@	c #A72B2B",
"6@	c #8C2525",
"7@	c #862323",
"8@	c #5C312A",
"9@	c #623630",
"0@	c #3D211D",
"a@	c #360F0F",
"b@	c #822323",
"c@	c #B63030",
"d@	c #A42B2B",
"e@	c #962727",
"f@	c #7A2121",
"g@	c #6E1D1D",
"h@	c #3C1010",
"i@	c #5D332D",
"j@	c #301916",
"k@	c #170303",
"l@	c #521616",
"m@	c #812323",
"n@	c #9F2A2A",
"o@	c #8F2525",
"p@	c #7E2222",
"q@	c #651A1A",
"r@	c #150505",
"s@	c #26110E",
"t@	c #5A312A",
"u@	c #4A302C",
"v@	c #2C1714",
"w@	c #741F1F",
"x@	c #461313",
"y@	c #472520",
"z@	c #5C3730",
"A@	c #4D322E",
"B@	c #391F1B",
"C@	c #100202",
"D@	c #4C1515",
"E@	c #762020",
"F@	c #511515",
"G@	c #571717",
"H@	c #721E1E",
"I@	c #6B1C1C",
"J@	c #1C0707",
"K@	c #2A1410",
"L@	c #663831",
"M@	c #633831",
"N@	c #693931",
"O@	c #693932",
"P@	c #5B3731",
"Q@	c #482924",
"R@	c #290B0B",
"S@	c #581717",
"T@	c #962828",
"U@	c #972828",
"V@	c #882424",
"W@	c #661B1B",
"X@	c #050101",
"Y@	c #4F2A24",
"Z@	c #5C342D",
"`@	c #3A211D",
" #	c #090101",
".#	c #B62F2F",
"+#	c #541616",
"@#	c #561717",
"##	c #220606",
"$#	c #0A0302",
"%#	c #3F211C",
"&#	c #62352F",
"*#	c #653831",
"=#	c #5A3631",
"-#	c #55332E",
";#	c #311E1B",
">#	c #140A08",
",#	c #1A0505",
"'#	c #461212",
")#	c #771F1F",
"!#	c #631A1A",
"~#	c #3E1010",
"{#	c #511616",
"]#	c #210606",
"^#	c #080202",
"/#	c #331E1C",
"(#	c #4C312E",
"_#	c #533530",
":#	c #573630",
"<#	c #41221C",
"[#	c #140705",
"}#	c #531616",
"|#	c #8B2525",
"1#	c #AB2C2C",
"2#	c #AF2E2E",
"3#	c #7F2222",
"4#	c #701D1D",
"5#	c #370E0E",
"6#	c #260808",
"7#	c #0B0202",
"8#	c #4D2923",
"9#	c #613830",
"0#	c #46251F",
"a#	c #150706",
"b#	c #340D0D",
"c#	c #691C1C",
"d#	c #9B2929",
"e#	c #B02E2E",
"f#	c #781F1F",
"g#	c #471313",
"h#	c #220F0C",
"i#	c #552E27",
"j#	c #4B2822",
"k#	c #170806",
"l#	c #411010",
"m#	c #7F2121",
"n#	c #6C1D1D",
"o#	c #621A1A",
"p#	c #4F1515",
"q#	c #2B0A0A",
"r#	c #501515",
"s#	c #0C0404",
"t#	c #B32E2E",
"u#	c #932626",
"v#	c #270909",
"w#	c #1D0707",
"x#	c #190505",
"y#	c #141313",
"z#	c #1F1A1A",
"A#	c #160B0B",
"B#	c #451212",
"C#	c #391D18",
"D#	c #3F1111",
"E#	c #BE3131",
"F#	c #4E1313",
"G#	c #0D0202",
"H#	c #060505",
"I#	c #3B3C3C",
"J#	c #5B5D5D",
"K#	c #2A2A2A",
"L#	c #230A0A",
"M#	c #6D1E1E",
"N#	c #380D0D",
"O#	c #532D26",
"P#	c #250909",
"Q#	c #AF2D2D",
"R#	c #721C1C",
"S#	c #6C1B1B",
"T#	c #180505",
"U#	c #252626",
"V#	c #0A0404",
"W#	c #521515",
"X#	c #641B1B",
"Y#	c #3B1E19",
"Z#	c #42221C",
"`#	c #411212",
" $	c #852323",
".$	c #621B1B",
"+$	c #4A1818",
"@$	c #351313",
"#$	c #300D0D",
"$$	c #411111",
"%$	c #611919",
"&$	c #751F1F",
"*$	c #4F1414",
"=$	c #2D0A0A",
"-$	c #2E0A0A",
";$	c #5D3830",
">$	c #2C1511",
",$	c #170404",
"'$	c #5F1919",
")$	c #2B1717",
"!$	c #434242",
"~$	c #121212",
"{$	c #170606",
"]$	c #6F1D1D",
"^$	c #360D0D",
"/$	c #270808",
"($	c #A62B2B",
"_$	c #280D0D",
":$	c #747575",
"<$	c #D6D8D8",
"[$	c #C2C3C3",
"}$	c #240606",
"|$	c #090202",
"1$	c #380E0E",
"2$	c #912626",
"3$	c #5A1818",
"4$	c #1A1010",
"5$	c #AFB0B0",
"6$	c #FAFAFA",
"7$	c #DBDBDB",
"8$	c #626262",
"9$	c #0B0303",
"0$	c #581818",
"a$	c #130303",
"b$	c #100404",
"c$	c #4D2822",
"d$	c #361B16",
"e$	c #120303",
"f$	c #892424",
"g$	c #751E1E",
"h$	c #858585",
"i$	c #C5C5C5",
"j$	c #A6A6A6",
"k$	c #404040",
"l$	c #551616",
"m$	c #431111",
"n$	c #2B0909",
"o$	c #681B1B",
"p$	c #0C0303",
"q$	c #28120F",
"r$	c #5F1A1A",
"s$	c #272727",
"t$	c #4E4E4E",
"u$	c #0E1212",
"v$	c #100808",
"w$	c #581616",
"x$	c #180404",
"y$	c #4D1414",
"z$	c #542D27",
"A$	c #582F28",
"B$	c #1D0C09",
"C$	c #300C0C",
"D$	c #661C1C",
"E$	c #252727",
"F$	c #261414",
"G$	c #641919",
"H$	c #5E1919",
"I$	c #1A0404",
"J$	c #0C0202",
"K$	c #401111",
"L$	c #4C1414",
"M$	c #020303",
"N$	c #1F1F1F",
"O$	c #2C2929",
"P$	c #4B1B1B",
"Q$	c #731C1C",
"R$	c #120202",
"S$	c #6A1D1D",
"T$	c #2A0909",
"U$	c #2E1612",
"V$	c #481212",
"W$	c #160606",
"X$	c #310F0F",
"Y$	c #421111",
"Z$	c #0C0C0C",
"`$	c #3D0F0F",
" %	c #5B1919",
".%	c #1B0505",
"+%	c #3F201B",
"@%	c #3B0E0E",
"#%	c #641A1A",
"$%	c #4A1313",
"%%	c #3F1010",
"&%	c #401010",
"*%	c #320B0B",
"=%	c #191414",
"-%	c #4A4B4B",
";%	c #706F6F",
">%	c #767676",
",%	c #6C6C6C",
"'%	c #353535",
")%	c #1B0606",
"!%	c #721F1F",
"~%	c #701E1E",
"{%	c #1B1818",
"]%	c #474949",
"^%	c #656666",
"/%	c #666868",
"(%	c #636565",
"_%	c #575959",
":%	c #292A2A",
"<%	c #060404",
"[%	c #752020",
"}%	c #5D1919",
"|%	c #360C0C",
"1%	c #40211B",
"2%	c #0D0404",
"3%	c #3C0E0E",
"4%	c #140A0A",
"5%	c #252222",
"6%	c #2B2828",
"7%	c #2A2424",
"8%	c #2D1F1F",
"9%	c #291919",
"0%	c #1F0B0B",
"a%	c #2A0A0A",
"b%	c #390D0D",
"c%	c #491313",
"d%	c #711F1F",
"e%	c #1D0606",
"f%	c #29130F",
"g%	c #0B0404",
"h%	c #200808",
"i%	c #5D1818",
"j%	c #2C0909",
"k%	c #340A0A",
"l%	c #3E0D0D",
"m%	c #4A1111",
"n%	c #5A1717",
"o%	c #180606",
"p%	c #2B1411",
"q%	c #4E2A23",
"r%	c #130505",
"s%	c #280A0A",
"t%	c #3B1111",
"u%	c #180907",
"v%	c #060000",
"w%	c #2A0B0B",
"x%	c #541717",
"y%	c #571818",
"z%	c #4A1414",
"A%	c #2F0C0C",
"B%	c #47251F",
"C%	c #371B17",
"D%	c #130605",
"E%	c #140303",
"F%	c #230707",
"G%	c #651C1C",
"H%	c #6B1D1D",
"I%	c #320C0C",
"J%	c #0E0202",
"K%	c #41211C",
"L%	c #4B2721",
"M%	c #3A1E19",
"N%	c #0F0303",
"O%	c #210505",
"P%	c #270606",
"Q%	c #2D0909",
"R%	c #280808",
"S%	c #5C322A",
"T%	c #0D0403",
"U%	c #5A3029",
"V%	c #562E27",
"W%	c #502B24",
"X%	c #482520",
"Y%	c #41221E",
"Z%	c #37201C",
"`%	c #633730",
" &	c #50342F",
".&	c #643931",
"+&	c #623830",
"@&	c #5C362F",
"#&	c #603830",
"$&	c #603831",
"%&	c #5F3831",
"&&	c #623831",
"*&	c #503430",
"=&	c #593631",
"-&	c #553531",
";&	c #563530",
"                              . + @       # $ %                     & * = @                   # - ;                     >       ",
"                              & ,                                       % @                     '                       )       ",
"                        ! ~ ~ { ,                                                             ] '                     ^         ",
"                            ; / ,                                                             + '                               ",
"                              & ,               ( _ : < [ (                                   . '                               ",
"                              } ,             _ | 1 2 3 4 5 6                                 $ '                               ",
"                              } ,     7 8 8 9 0 a b c c b d | 7                                 '                               ",
"                              } >   e f g h i j k l m n o p q 8                               @ '                               ",
"                              } / r s t u v w x y z A B C D E _                               @ '                               ",
"                              } F G H I J K L M N O P Q R S T _                               @ '                               ",
"                              } U V W K X Y Z `  ...+.@.#.$.%.(                               @ '                               ",
"                              } &.*.=.-.;.>.,.'.).!.#.b t ~.<                                 @ '                               ",
"                              } {.].^./.(._.:.<.[.Z }.H |.1.2.3.3.3.3.3.3.3.3.4.5.6.(         @ '                               ",
"                              } 7.8.9.0.n a.#.b.c.X 0.d.2 g e.f.d g.g.g.g.g.f.h.i.j.k.5 e (   @ '                               ",
"                              } = 5 *.l.m.n.d.c m o.<.k p.q.r.s.t.u.t.t.t.t.t.s.v.H p.*.w.| [ @ '                               ",
"                              } , x.y.i z.g e.v A.N B.k C.D.E.F.G.H.G.F.I.J.K.L.M.N.t.b 9.f.O.P.'                               ",
"                              } ,   ( < e Q.R.S.I y T.U.V.W.X.Y.Z.`.`. +.+++@+#+$+%+&+*+u.b S.=+-+;+                            ",
"                              & ,         e g p.b b >+,+'+)+!+~+{+]+]+{+~+^+)+/+/+(+_+:+<+[+b }+|+1+                            ",
"                              2+,     7 3+8.t b u.4+5+6+7+8+9+0+0+a+a+a+a+b+^+c+d+e+f+g+++h+i+C.j+k+7                           ",
"                            } l+,   @ m+j d.n+o+p+q+r+s+b+t+0+a+a+a+a+a+0+t+u+v+w+b+x+y+z+A+B+n+b C+D+                          ",
"                              E+,   3.F+x G+H+I+`.J+K+L+a+a+a+a+a+a+a+a+a+a+M+e+x+a+0+N+e+O+P+Q+C.x 1 _                         ",
"                              $ , Q.h x t.R+S+T+U+L+a+0+a+a+a+a+a+a+a+a+0+a+V+W+U+a+0+X+e+O+(+Y+Z+9.`+0 7                       ",
"                              }  @.@+@C.@@#@s+L+0+0+a+a+a+a+a+0+0+0+0+0+$@%@&@*@=@V+-@;@`.O+/+>@,@'@x i.e                       ",
"                              } )@2 x D.!@~@{@a+a+a+a+0+0+a+]@^@M+V+/@(@~@d+_@O+_@:@:@_@(+(+(+c+#@<@t.[@}@7                     ",
"                              } |@].u.1@2@3@0+0+0+0+4@{+V+5@&@6@7@7@:@ +/+(+(+(+(+(+(+(+(+(+(+(+O+q+*+b h.8@@                   ",
"                              9@0@v x a@b@c@L+L+%@/@d@e@7@)+f@(+/+/+/+(+(+(+(+(+(+(+(+(+(+(+(+(+/+g@h@n+[@R.8                   ",
"                              i@j@x k@l@m@;@s+n@o@z+p@g+(+(+O+(+(+(+(+(+(+(+(+(+(+(+(+(+(+(+(+(+(+/+q@r@b s@t@                  ",
"                            % u@v@x k@Y+g+_+.+O+O+O+O+O+(+(+(+(+(+(+(+(+(+(+(+(+(+(+(+(+(+(+(+(+(+(+w@x@x w y@8                 ",
"                        } $ z@A@B@p C@D@E@F@G@H@(+O+O+O+(+(+(+(+(+(+(+(+(+(+(+(+(+(+(+(+(+(+(+(+(+>@I@q@J@C.K@5.                ",
"                      L@M@N@O@P@Q@`+D.R@h@&+S@O+7+T@U@V@/+(+(+(+(+(+(+(+(+(+(+(+(+(+(+(+(+(+(+(+/+6+I+W@h@X@`+Y@7               ",
"                              Z@`@S.b  #K.,@.+!+.#]@N+!+g+(+(+(+(+(+(+(+(+(+(+(+(+(+(+(+(+(+(+(+/+S++#@#Y+##$#%#&#*#            ",
"=#=#=#=#=#=#=#=#=#=#=#=#=#=#-#;#>#b C.,#'#(+d@x+a+^@s+d+/+(+(+(+(+(+(+(+(+(+(+(+(+(+(+(+(+(+(+(+(+)#!#~#{#]#^#/#(#_#:#=#=#=#=#=#",
"{ @                 l+.   9 <#[#b t.M.}#|#1#%@^@2#f+3#(+(+(+(+(+(+(+(+(+(+(+(+(+(+(+(+(+(+(+(+(+(+(+4#5#6#7#`+8#(             9#",
"# ~                 L@M@_ 0#a#C.i+b#c#d#e#X+e#&@Z.(+O+(+(+(+(+(+(+(+(+(+(+(+(+/+(+(+)#H@4#f#(+(+(+/+>@g#>+b h#i#                ",
"#   *#                8 j#k#b '@l#m#e#{+b+n@`.(+O+(+(+(+(+(+(+(+(+(+(+(+(+(+O+n#@+o#p#q#H+r#E@(+(+(+(+W@J@C.a#R._               ",
"#                   7 m+s@b s#'#r+U+a+t#u#g+(+(+(+(+(+(+(+(+(+(+(+(+(+(+(+S+,@v#w#x#4+y#z#A#G@f#(+(+(+(+B#>+b F+| (             ",
"#                   : C#b i+D#4#;@E#x+u#/+(+/+c+g+f@/+(+(+(+(+(+(+(+(+/+H@F#G#n+C.C.H#I#J#K#L#c#(+(+(+(+M#N#t.b K@1.            ",
"#                   O#*.C.P#n#Y.~@Q#d@/+(+O+R#S#I@n#2@)#/+(+(+(+(+(+(+(+$+T#b b b b I C c.U#V#W#>@/+(+(+(+X#h+C.[@Y#8           ",
"#                 _ Z#w D.`#/+/+:@d+ $(+f#.$+$@$#$<@$$%$&$/+(+(+(+(+/+>@*$d.b b b b b c #.W c =$n#/+(+(+/+(+X.-$9.a 3.@       ;$",
"#                 D+>$9.,$'$7@|#:@/+(+f#S@)$!$I#~$b n+{$Y+>@/+(+(+(+c+]$^$u.b b b b b b b b b V.$+(+(+(+(+/+>@p#l.H Y@@     ^   ",
"#                 | $.n+/$p@/@N+($`.>@6+_$:$<$[$!.b b b 6#++(+(+(+(+c+!#}$b b b b b b b b b b '@:+)#/+(+(+(+O+q+*+[@j#@         ",
"#               ( T p.|$1$2$]+t+1# $H@3$4$5$6$7$8$b b b 9$0$Y./+(+(+(++#a$b b b b b b b b b b t.l#2@c+(+(+(+O+'+b$d.c$@         ",
"#               9 d$[@e$,@f$(@Q#&@Z.g$*$y h$i$j$k$b b b '@l$)#/+(+(+&$m$X@b b b b b b b b b b b n$o$c+(+(+/+O+G@p$w y.@         ",
"#               D+q$9.]#r$)+`.:@ +c+)#F@l.s$t$<.b k =.u$v$w$)#/+(+c+I@<@t.b b b b b b b b b b b x$q+/+(+(+/+>@y$i+t z$@         ",
"#               A$B$t.C$#@c+O+O+O+(+(+D$,#C.b b b W L E$F$G$(+(+(+c+H$I$b b b b b b b b b b b b J$*$)#(+(+/+S+~#s.].1.          ",
"#               O#[#x K$H@/+(+(+(+(+(+Y.L$e$C.b b M$N$O$P$Q$/+(+(+/+p#R$b b b b b b b b b b b b D.$$.+/+(+g+S$T$v.U$<           ",
"#               .@q.d.V$&$/+(+(+(+(+(+(+w@L$W$x t.t.'@X$n#O+(+(+(+O+Y$ #c b.Z$Z$^.#.b b b b b b x `$S+/+(+/+ %.%w +%(           ",
"-               k+[#X@@%H@_@/+(+(+(+(+(+(+&$#%$%%%&%W##@Y.(+(+(+/+_+*%=%-%;%>%Q ,%'%#.b b b b x J@'+O+c+(+c#p+t.a#y.          *#",
"+               3.j b )%p#!%)#/+/+/+(+(+(+(+(+2@_+_+>@(+(+(+(+(+/+~%n${%]%^%/%(%_%:%<%u.|$x$G.V$X#[%(+H@}%|%t.b 3 <         ! L@",
"# *#            x.1%w b 2%3%Y+P+S+)#O+(+/+(+/+/+/+f@/+(+(+(+(+(+(+H@|%4%5%6%7%8%9%0%a%b%c%S@++!%f@d%!#K$e%t.b f%.@7           ! ",
"#                 5.2 q.9.u.g%h%1$}#q@4#)#(+(+(+(+(+(+(+(+(+(+(+(+f#i%N#j%j%k%l%m%n%#+~%>@/+g+&$W@$$o%n+9.9.p%q%x.              ",
"#                 @ Q.k.j [@b b C.i+r%s%m$q+~%O+/+c+/+(+(+(+(+(+(+(+(+&$H@S+>@(+_@ + +g+(+d%r$t%V.n+b b u%Y#1.(                 ",
"#                     x.8@y@z.`+[@b b C.v%r@w%~#x%W@]$&$O+/+g+g+g+g+g+g+g+g+/+&$g@X#y%z%~#A%V.x b 9.$.Y#O#6 @                   ",
"#                         x.e z$B%C%F+D%x C.t.D.E%F%^$Y$y$:+'$G%P+++P+H%n#@+l@m$I%J.E%J% #x X@D%h.K%m+6.(                       ",
"#                             7 8 Q.A$L%M%h.*.t w X@v.|$N%,$O%P%G.G.G.Q%-$R%a$|$n+C.x p u%F+j.%.t@6 7                           ",
"#                                     ( < S%| B%h C+s@+@[#t p.T%'@v T%T%p T%t a#*.s@8.K%8#U%< (                                 ",
"#                                             ( [ e 1.V%W%%.X%Y%Z%<#<#<#<#E L%k+V%1.< x.@                                       ",
"#                                                           @ `% &! ( ( ( ( @                                                 M@",
"#                                                             } l+~ $ .&                                                      +&",
"#                                                             } @&                                                            #&",
"#           ^                                                 } @&                                                              ",
"#         #&@                                                 } @&                                                              ",
".     ~ $&                        ; M@%&                      &&]                                     M@M@            &       *#",
"*&=&_#=&=#=#=#=#=#=#=#=#=#=#=#=#=#-&_#*&2+=#=#=#=#=#=#=#=#=#=#* *&= =#=#=#=#=#=#=#=#=#=#=#=#=#=#=#=#:#=#=#=#=#=#=#=#=#;&=#=#=#- "};
