/* XPM */
static char * player_xpm[] = {
"64 64 449 2",
"  	c #683931",
". 	c #5C3630",
"+ 	c #573530",
"@ 	c #673931",
"# 	c #5F3730",
"$ 	c #603730",
"% 	c #653931",
"& 	c #613730",
"* 	c #523530",
"= 	c #583631",
"- 	c #543530",
"; 	c #663931",
"> 	c #5C3731",
", 	c #5F3731",
"' 	c #4C2822",
") 	c #2F1612",
"! 	c #301612",
"~ 	c #2E1612",
"{ 	c #5A3630",
"] 	c #623731",
"^ 	c #633830",
"/ 	c #613831",
"( 	c #553530",
"_ 	c #42211C",
": 	c #080000",
"< 	c #42221C",
"[ 	c #593630",
"} 	c #653830",
"| 	c #523430",
"1 	c #542D26",
"2 	c #160504",
"3 	c #0D0201",
"4 	c #532C25",
"5 	c #0A0101",
"6 	c #0C0202",
"7 	c #0E0303",
"8 	c #0F0404",
"9 	c #100505",
"0 	c #0D0303",
"a 	c #090101",
"b 	c #643831",
"c 	c #61352D",
"d 	c #AA7F7E",
"e 	c #CF9C9B",
"f 	c #A97F7E",
"g 	c #54322C",
"h 	c #5C352F",
"i 	c #5E332B",
"j 	c #1F1212",
"k 	c #372625",
"l 	c #3A2D2C",
"m 	c #3C3232",
"n 	c #AE8685",
"o 	c #D09F9E",
"p 	c #AD8585",
"q 	c #3D3232",
"r 	c #51302B",
"s 	c #65372F",
"t 	c #623730",
"u 	c #8A6666",
"v 	c #DDB6B5",
"w 	c #E3C6C5",
"x 	c #DCB5B4",
"y 	c #896665",
"z 	c #663830",
"A 	c #5C322B",
"B 	c #573029",
"C 	c #231616",
"D 	c #694D4C",
"E 	c #6B5352",
"F 	c #736362",
"G 	c #A58585",
"H 	c #D4A7A6",
"I 	c #DCB8B7",
"J 	c #A48584",
"K 	c #231515",
"L 	c #5A3129",
"M 	c #523B3B",
"N 	c #D6AAA9",
"O 	c #D6A9A8",
"P 	c #513A3A",
"Q 	c #522C25",
"R 	c #512B25",
"S 	c #190D0C",
"T 	c #8C6868",
"U 	c #9B7776",
"V 	c #D9B0AF",
"W 	c #DBB6B5",
"X 	c #9A7676",
"Y 	c #180C0C",
"Z 	c #2A1B1B",
"` 	c #D2A2A1",
" .	c #281A19",
"..	c #0E0202",
"+.	c #4B2721",
"@.	c #46241F",
"#.	c #0A0100",
"$.	c #A37A79",
"%.	c #A57D7D",
"&.	c #DCB7B6",
"*.	c #A57D7C",
"=.	c #A27A79",
"-.	c #0B0101",
";.	c #210C0A",
">.	c #D09E9D",
",.	c #220D0A",
"'.	c #DFBEBD",
").	c #0D0404",
"!.	c #0C0303",
"~.	c #230E0B",
"{.	c #3A1C18",
"].	c #1D0A08",
"^.	c #C59594",
"/.	c #C59493",
"(.	c #3A1D18",
"_.	c #321713",
":.	c #CB9897",
"<.	c #CA9897",
"[.	c #331814",
"}.	c #321813",
"|.	c #E1C4C3",
"1.	c #E0C4C3",
"2.	c #673830",
"3.	c #311713",
"4.	c #2B1C1C",
"5.	c #2C1C1C",
"6.	c #2B1C1B",
"7.	c #3E1F1A",
"8.	c #C69594",
"9.	c #D19D9C",
"0.	c #E3C5C4",
"a.	c #3F201B",
"b.	c #E0BFBE",
"c.	c #DFBFBE",
"d.	c #D0B5B4",
"e.	c #D0B6B5",
"f.	c #D1B6B5",
"g.	c #D8BBBA",
"h.	c #E2C4C3",
"i.	c #97706F",
"j.	c #976F6F",
"k.	c #A77C7B",
"l.	c #A88180",
"m.	c #A3A4A4",
"n.	c #A3A2A2",
"o.	c #A3A3A3",
"p.	c #8D8C8C",
"q.	c #7C5C5B",
"r.	c #A97E7E",
"s.	c #D0B0AF",
"t.	c #A69392",
"u.	c #A4A4A4",
"v.	c #565555",
"w.	c #A57B7A",
"x.	c #353333",
"y.	c #FFFFFF",
"z.	c #E0DFDF",
"A.	c #B9A1A0",
"B.	c #B8A0A0",
"C.	c #BBBBBB",
"D.	c #8B8A8A",
"E.	c #40201B",
"F.	c #D8B1B0",
"G.	c #D9B2B1",
"H.	c #DFDFDF",
"I.	c #8A8A8A",
"J.	c #373535",
"K.	c #E0E0E0",
"L.	c #B57978",
"M.	c #BF807E",
"N.	c #CF9B9A",
"O.	c #1A1616",
"P.	c #939393",
"Q.	c #919090",
"R.	c #919191",
"S.	c #7E7D7D",
"T.	c #94807F",
"U.	c #816F6E",
"V.	c #816F6F",
"W.	c #81706F",
"X.	c #948080",
"Y.	c #B9A0A0",
"Z.	c #696969",
"`.	c #929292",
" +	c #4B4A4A",
".+	c #B47978",
"++	c #B16E6C",
"@+	c #BB7472",
"#+	c #554848",
"$+	c #564949",
"%+	c #63362E",
"&+	c #2F1511",
"*+	c #3E2322",
"=+	c #402222",
"-+	c #CD9B9A",
";+	c #8B7878",
">+	c #524646",
",+	c #181010",
"'+	c #191010",
")+	c #8C7978",
"!+	c #CD9A99",
"~+	c #402221",
"{+	c #3E2222",
"]+	c #766665",
"^+	c #776766",
"/+	c #B8A09F",
"(+	c #5A3631",
"_+	c #2B1613",
":+	c #B67270",
"<+	c #B97472",
"[+	c #CE9B9A",
"}+	c #987271",
"|+	c #776666",
"1+	c #F0F0F0",
"2+	c #FEFEFE",
"3+	c #786767",
"4+	c #DBB7B6",
"5+	c #987171",
"6+	c #B67170",
"7+	c #281613",
"8+	c #573630",
"9+	c #341915",
"0+	c #100302",
"a+	c #B5716F",
"b+	c #B6716F",
"c+	c #CB9998",
"d+	c #171B1C",
"e+	c #171B1B",
"f+	c #161A1A",
"g+	c #161819",
"h+	c #141717",
"i+	c #151313",
"j+	c #180B0B",
"k+	c #9B7574",
"l+	c #CF9D9C",
"m+	c #EFEFEF",
"n+	c #FDFDFD",
"o+	c #EEEEEE",
"p+	c #9B7474",
"q+	c #180C0B",
"r+	c #151314",
"s+	c #151718",
"t+	c #351915",
"u+	c #613830",
"v+	c #0E0404",
"w+	c #CD9F9E",
"x+	c #9CC8CC",
"y+	c #B5BBBD",
"z+	c #DBB5B4",
"A+	c #DBB4B3",
"B+	c #653831",
"C+	c #0D0302",
"D+	c #CD9796",
"E+	c #CA9A99",
"F+	c #B4BBBD",
"G+	c #8F7C7B",
"H+	c #5B4E4D",
"I+	c #5C4E4E",
"J+	c #5C4F4E",
"K+	c #5D4F4F",
"L+	c #907D7C",
"M+	c #090000",
"N+	c #B97270",
"O+	c #B77876",
"P+	c #9CC8CD",
"Q+	c #BCC7CA",
"R+	c #B77776",
"S+	c #44231D",
"T+	c #3D1F1A",
"U+	c #9C605F",
"V+	c #9B6867",
"W+	c #8DBCC1",
"X+	c #90BDC1",
"Y+	c #90BCC1",
"Z+	c #141A1B",
"`+	c #68989C",
" @	c #719FA3",
".@	c #9DC9CD",
"+@	c #BDC8CA",
"@@	c #BCC7C9",
"#@	c #709EA3",
"$@	c #67979C",
"%@	c #13191A",
"&@	c #0F1011",
"*@	c #4C7073",
"=@	c #587D80",
"-@	c #86B3B8",
";@	c #8CB9BD",
">@	c #B8C0C3",
",@	c #D9B3B2",
"'@	c #DEBDBC",
")@	c #B7C0C2",
"!@	c #8CB8BD",
"~@	c #577C80",
"{@	c #0E0F10",
"]@	c #5D3830",
"^@	c #27393B",
"/@	c #78A6AA",
"(@	c #B3B9BB",
"_@	c #DAB3B2",
":@	c #B2B9BB",
"<@	c #67979B",
"[@	c #26383A",
"}@	c #562E27",
"|@	c #151D1E",
"1@	c #3D5B5E",
"2@	c #476366",
"3@	c #5E797B",
"4@	c #78888A",
"5@	c #94999B",
"6@	c #BAA3A3",
"7@	c #D6ABAA",
"8@	c #94999C",
"9@	c #78878A",
"0@	c #3D5B5D",
"a@	c #151C1D",
"b@	c #436365",
"c@	c #A89A9B",
"d@	c #DDB9B8",
"e@	c #A89A9C",
"f@	c #426266",
"g@	c #60342D",
"h@	c #5A3029",
"i@	c #192324",
"j@	c #283B3D",
"k@	c #443D3D",
"l@	c #553D3D",
"m@	c #A57372",
"n@	c #C08381",
"o@	c #CE9D9C",
"p@	c #D2A3A2",
"q@	c #A47371",
"r@	c #433C3D",
"s@	c #283B3E",
"t@	c #192224",
"u@	c #985E5C",
"v@	c #B97371",
"w@	c #CC9594",
"x@	c #985D5C",
"y@	c #593029",
"z@	c #170707",
"A@	c #1B0A0A",
"B@	c #201212",
"C@	c #211414",
"D@	c #221514",
"E@	c #231615",
"F@	c #160707",
"G@	c #0A0202",
"H@	c #896666",
"I@	c #937F7F",
"J@	c #5C312A",
"K@	c #211413",
"L@	c #473232",
"M@	c #957271",
"N@	c #D1A1A0",
"O@	c #9D8584",
"P@	c #463232",
"Q@	c #473332",
"R@	c #483333",
"S@	c #483433",
"T@	c #493433",
"U@	c #9D8685",
"V@	c #957171",
"W@	c #201313",
"X@	c #5C322A",
"Y@	c #715453",
"Z@	c #D8AEAD",
"`@	c #705352",
" #	c #663831",
".#	c #D7AEAD",
"+#	c #D4B9B8",
"@#	c #C5ACAB",
"##	c #CBA1A0",
"$#	c #D3A6A5",
"%#	c #D5A9A8",
"&#	c #CBA1A1",
"*#	c #D5B9B8",
"=#	c #6F5251",
"-#	c #A58F8E",
";#	c #A87E7D",
">#	c #DFBDBC",
",#	c #A87D7D",
"'#	c #A58F8F",
")#	c #A5908F",
"!#	c #AF8F8E",
"~#	c #E1C1C0",
"{#	c #AF8E8D",
"]#	c #A6908F",
"^#	c #6F5252",
"/#	c #715352",
"(#	c #705252",
"_#	c #4D2822",
":#	c #463231",
"<#	c #866363",
"[#	c #8B6F6E",
"}#	c #927F7E",
"|#	c #6A5B5A",
"1#	c #D9B1B0",
"2#	c #D9AFAE",
"3#	c #968181",
"4#	c #937F7E",
"5#	c #978281",
"6#	c #8A6F6E",
"7#	c #463131",
"8#	c #D09C9B",
"9#	c #251717",
"0#	c #271918",
"a#	c #D1A2A1",
"b#	c #62352D",
"c#	c #5E332C",
"d#	c #512B24",
"e#	c #E0C0BF",
"f#	c #E1C0BF",
"g#	c #2A2120",
"h#	c #BBA3A2",
"i#	c #2C2323",
"j#	c #291A1A",
"k#	c #5A312A",
"l#	c #502A24",
"m#	c #292020",
"n#	c #312827",
"o#	c #CBB1B0",
"p#	c #2D2423",
"q#	c #CBB0B0",
"r#	c #633831",
"s#	c #CAB0AF",
"t#	c #2D2424",
"u#	c #D3A4A3",
"v#	c #C9AFAE",
"w#	c #623830",
"x#	c #0B0202",
"y#	c #603830",
"z#	c #4E2923",
"A#	c #1B0806",
"B#	c #1B0907",
"C#	c #190907",
"D#	c #1D0A07",
"E#	c #1C0907",
"F#	c #633730",
"G#	c #5C362F",
"H#	c #603831",
"I#	c #5F3831",
"J#	c #4D2922",
"K#	c #503430",
"L#	c #593631",
"M#	c #533530",
"N#	c #553531",
"O#	c #583630",
"P#	c #563530",
"                              . + @       # $ %                     & * = @                   # - ;                     >       ",
"                              & ,                 ' ) ) ) ) ) ! ! ! ! ) ~ ) ) ) '               {                       ]       ",
"                        ^ / / ( ,                 _ : : : : : : : : : : : : : : <             [ {                     }         ",
"                            ; | ,         1 2 2 2 3 : : : : : : : : : : : : : : 3 2 2 2 1     + {                               ",
"                              & ,         4 : : : : : 5 6 7 8 8 9 9 8 8 0 6 a : : : : : 4     . {                               ",
"                              b , c : : : : : : : d e e e e e e e e e e e e e e f : : : : : : : g                               ",
"                              b h i : : : j k l m n o o o o o o o o o o o o o o p q l k j : : : r s                             ",
"                              t : : : : : u e v w w w w w w w w w w w w w w w w w w x e y : : : : : z                           ",
"                            A B : C D E F G H I w w w w w w w w w w w w w w w w w w I H J F E D K : L A                         ",
"                            : : : M e N w w w w w w w w w w w w w w w w w w w w w w w w w w O e P : : :                         ",
"                        Q R : S T U V W w w w w w w w w w w w w w w w w w w w w w w w w w w W V X T Y : R Q                     ",
"                        3 : : Z e ` w w w w w w w w w w w w w w w w w w w w w w w w w w w w w w ` e  .: : ..                    ",
"                    +.@.#.: $.%.&.I w w w w w w w w w w w w w w w w w w w w w w w w w w w w w w I &.*.=.: -.@.+.                ",
"                    ;.: : : e >.w w w w w w w w w w w w w w w w w w w w w w w w w w w w w w w w w w >.e : : : ,.                ",
"                    ,.: : a '.'.w w w w w w w w w w w w w w w w w w w w w w w w w w w w w w w w w w '.'.: : : ,.                ",
"                    ,.: : ).w w w w w w w w w w w w w w w w w w w w w w w w w w w w w w w w w w w w w w !.: : ~.                ",
"                {.].#.: ^./.w w w w w w w w w w w w w w w w w w w w w w w w w w w w w w w w w w w w w w /.^.: #.].(.            ",
"                _.: : : :.e w w w w w w w w w w w w w w w w w w w w w w w w w w w w w w w w w w w w w w e <.: : : [.            ",
"                }.: : : |.w w w w w w w w w w w w w w w w w w w w w w w w w w w w w w w w w w w w w w w w 1.: : : [.            ",
"            2.z 3.: 4.5.|.w w w w w w w w w w w w w w w w w w w w w w w w w w w w w w w w w w w w w w w w |.5.6.: 3.z 2.        ",
"            7.: : : 8.9.0.w w w w w w w w w w w w w w w w w w w w w w w w w w w w w w w w w w w w w w w w 0.9.8.: : : 7.        ",
"            a.: : : 8.e 0.w b.c.d.e.f.f.e.e.e.g.b.h.w w w w w w w w w w w w w w h.b.g.e.e.e.f.f.e.d.c.b.w 0.e ^.: : : a.        ",
"            a.: : : 8.e 0.w e <.: : : : : : : i.e I w w w w w w w w w w w w w w &.e j.: : : : : : : <.e w 0.e 8.: : : a.        ",
"            a.: : : 8.e 0.w k.l.m.n.o.p.: : : q.r.s.w w w w w w w w w w w w w w s.r.t.o.o.u.v.: : : w.k.w 0.e 8.: : : a.        ",
"            a.: : : 8.e w w : x.y.y.y.z.: : : : : A.w w w w w w w w w w w w w w B.: C.y.y.y.D.: : : : : w 0.e 8.: : : E.        ",
"            a.: : : 8.e F.G.: x.y.y.y.H.: : : : : A.w w w w w w w w w w w w w w B.: C.y.y.y.I.: : : : : G.F.e 8.: : : E.        ",
"            a.: : : 8.e e e : J.y.y.y.K.: : : : : A.w w w w w w w w w w w w w w B.: C.y.y.y.D.: : : : : e e e 8.: : : a.        ",
"            a.: : : L.M.N.e : O.P.Q.R.S.: : : : : A.w w w T.U.V.W.W.V.U.X.w w w Y.: Z.R.R.`. +: : : : : e N.M..+: : : a.        ",
"            7.: : : ++@+N.e : : : : : : : : : : : A.w w w #+: : : : : : $+w w w A.: : : : : : : : : : : e N.@+++: : : 7.        ",
"            s %+&+: *+=+-+e : : : : : : : : : : : A.w ;+>+,+: : : : : : '+>+)+w A.: : : : : : : : : : : e !+~+{+: ) %+s         ",
"                _.: : : !+e a : : : : : : : : : : B.w ]+: : : : : : : : : : ^+w /+: : : : : : : : : : 5 e !+: : : 3.            ",
"(+(+(+(+(+(+(+(+_+: : : :+<+[+<.: : : : : : : }+e I w |+: 1+2+2+2+2+2+2+1+: 3+w 4+e 5+: : : : : : : <.[+<+6+: : : 7+8+(+(+(+(+(+",
"( @             9+0+: : a+b+e c+d+e+f+g+h+i+j+k+l+I w |+: m+n+n+n+n+n+n+o+: 3+w I l+p+q+r+s+g+f+e+d+c+e b+a+: : 0+t+          u+",
"# /                 ,.: : v+e w+x+x+x+x+x+y+e z+w w w ]+: : : : : : : : : : ^+w w w A+e y+x+x+x+x+x+w+e 7 : : ~.                ",
"#   B+              ,.: : C+D+E+x+x+x+x+x+F+` W w w w G+H+I+J+J+K+K+J+J+I+H+L+w w w W ` F+x+x+x+x+x+E+D+6 : : ,.                ",
"#                   ,.: : M+N+O+P+P+P+P+P+Q+w w w w w w w w w w w w w w w w w w w w w w Q+P+P+P+P+P+R+N+M+: : ,.                ",
"#                   S+T+#.: U+V+W+X+P+P+P+Q+w w w w w w w w w w w w w w w w w w w w w w Q+P+P+P+Y+W+V+U+: #.T+S+                ",
"#                       ..: : Z+`+ @x+x+.@+@w w w w w w w w w w w w w w w w w w w w w w @@x+P+P+#@$@%@: : ..                    ",
"#                       ' +.: &@*@=@-@;@.@>@,@'@w w w w w w w w w w w w w w w w w w '@,@)@x+!@-@~@*@{@: +.'                   ]@",
"#                           : : : ^@$@/@x+(@e _@w w w w w w w w w w w w w w w w w w _@e :@x+/@<@[@: : :                     }   ",
"#                           }@1 : |@1@2@3@4@5@6@7@'@w w w w w w w w w w w w w w '@7@6@8@9@3@2@0@a@: 1 }@                        ",
"#                             z : : : : : b@<@c@e d@w w w w w w w w w w w w w w d@e e@$@f@: : : : : z                           ",
"#                               g@h@: : : i@j@k@l@m@n@o@p@p@p@p@p@p@p@p@p@p@o@n@q@l@r@s@t@: : : h@g@                            ",
"#                                 c : : : : : : : u@v@w@e e e e e e e e e e w@v@x@: : : : : : : c                               ",
"#                                   2.y@: : : : : z@A@B@C@D@K K E@E@K K D@C@B@A@F@: : : : : y@2.                                ",
"#                                     h@: M+5 5 G@a : : : : : : : : : : : : : : a G@5 5 M+: L                                   ",
"#                                 c : : : H@e x w I@: : : : : : : : : : : : : : T.w x e y : : : c                               ",
"-                               %+J@: K@L@M@N@W w O@P@L@Q@R@R@S@T@T@S@R@R@Q@L@P@U@w z+N@V@L@W@: X@%+                          B+",
"+                             z : : : Y@e V w w w Z@e e e e e e e e e e e e e e Z@w w w V e `@: : : z                       ^  #",
"# B+                          z : : : `@e .#w +#@###e $#%#%#%#%#%#%#%#%#%#%#$#e &#@#*#w .#e =#: : : z                         ^ ",
"#                             z : : : `@e .#w -#: ;#e >#w w w w w w w w w w '@e ,#: '#w .#e =#: : : z                           ",
"#                             z : : : `@e .#w )#: !#F.~#w w w w w w w w w w ~#F.{#: ]#w .#e ^#: : : z                           ",
"#                             z : : : /#e .#w )#: A.w w w w w w w w w w w w w w B.: ]#w .#e (#: : : z                           ",
"#                             @ 4 _#: :#<#[#}#|#: A.w w w 1#2#3#4#4#5#2#1#w w w B.: |#}#6#<#7#: _#4 @                           ",
"#                                 c : : : : : : : A.w w w N@8#9#: : 0#e a#w w w Y.: : : : : : : b#                              ",
"#                                 2.c#d#: : : : : A.w w w e#f#g#: :  .e a#w w w A.: : : : : d#c#2.                              ",
"#                                     h@: : : : : h#w w w w w i#: : j#e a#w w w h#: : : : : k#                                  ",
"#                                       z l#: : : m#n#o#w w w p#: : Z e ` w q#n#m#: : : l#z                                   r#",
"#                                         Q : : : : : s#w w w t#: : Z e u#w v#: : : : : Q                                     w#",
"#                                             +.: : : : : a x#: : : : 5 M+: : : : : +.                                        y#",
"#           }                                 z#A#0+: : : : : B#C#D#E#: : : : : 0+A#z#                                          ",
"#         y#@                                     _ : : : : : F#G#  z : : : : : <                                               ",
".     / H#                        ; r#I#          _#[.[.[.[._.& [   2._.[.[.[.[.J#                    r#r#            &       B+",
"K#L#M#L#(+(+(+(+(+(+(+(+(+(+(+(+(+N#M#K#O#(+(+(+(+(+(+(+(+(+(+* K#= (+(+(+(+(+(+(+(+(+(+(+(+(+(+(+(+8+(+(+(+(+(+(+(+(+P#(+(+(+- "};
