/* XPM */
static char * player_xpm[] = {
"64 64 419 2",
"  	c #6F4035",
". 	c #714136",
"+ 	c #704035",
"@ 	c #734136",
"# 	c #724136",
"$ 	c #704135",
"% 	c #714135",
"& 	c #6D4034",
"* 	c #734236",
"= 	c #734336",
"- 	c #724336",
"; 	c #724236",
"> 	c #44241D",
", 	c #220E0A",
"' 	c #724036",
") 	c #673A30",
"! 	c #683A30",
"~ 	c #371B16",
"{ 	c #080000",
"] 	c #703F35",
"^ 	c #0A0100",
"/ 	c #090000",
"( 	c #000000",
"_ 	c #66392F",
": 	c #4D2921",
"< 	c #4D2922",
"[ 	c #4A2820",
"} 	c #0C0101",
"| 	c #8C6868",
"1 	c #A17978",
"2 	c #4B2820",
"3 	c #6E4035",
"4 	c #5B3229",
"5 	c #0C0202",
"6 	c #0D0303",
"7 	c #B58887",
"8 	c #D09D9C",
"9 	c #6F3E34",
"0 	c #2A130E",
"a 	c #1F0C08",
"b 	c #382727",
"c 	c #C39291",
"d 	c #CCA4A3",
"e 	c #D8BDBC",
"f 	c #DFC0BF",
"g 	c #E1C2C1",
"h 	c #6B3C32",
"i 	c #65382F",
"j 	c #0C0201",
"k 	c #3B2929",
"l 	c #5E4444",
"m 	c #655453",
"n 	c #73605F",
"o 	c #D1A3A2",
"p 	c #D9B1B0",
"q 	c #E3C7C6",
"r 	c #E3C6C5",
"s 	c #371D15",
"t 	c #050000",
"u 	c #866363",
"v 	c #D19D9C",
"w 	c #E0BEBD",
"x 	c #E4C7C6",
"y 	c #371B15",
"z 	c #6E4034",
"A 	c #734436",
"B 	c #673E2F",
"C 	c #512F24",
"D 	c #26110C",
"E 	c #302020",
"F 	c #9A7372",
"G 	c #B79190",
"H 	c #DBB4B3",
"I 	c #26100C",
"J 	c #512C24",
"K 	c #67392F",
"L 	c #734536",
"M 	c #593428",
"N 	c #402D2D",
"O 	c #CF9B9A",
"P 	c #D8AEAD",
"Q 	c #593128",
"R 	c #6E3E33",
"S 	c #2E1510",
"T 	c #AE8382",
"U 	c #C49695",
"V 	c #E0C0BF",
"W 	c #E1C3C2",
"X 	c #6D3E33",
"Y 	c #BD9291",
"Z 	c #D3A6A5",
"` 	c #CCB2B1",
" .	c #5C3229",
"..	c #020100",
"+.	c #644948",
"@.	c #946D6D",
"#.	c #D5B8B7",
"$.	c #321813",
"%.	c #8D6968",
"&.	c #DFBEBD",
"*.	c #341914",
"=.	c #988180",
"-.	c #E1C1C0",
";.	c #E2C5C4",
">.	c #6C4034",
",.	c #301712",
"'.	c #180C0C",
").	c #473231",
"!.	c #A28B8A",
"~.	c #E5C7C6",
"{.	c #311812",
"].	c #573027",
"^.	c #483333",
"/.	c #CE9B9A",
"(.	c #D8AFAE",
"_.	c #DDB9B8",
":.	c #D8B3B2",
"<.	c #B29A99",
"[.	c #B19A99",
"}.	c #C1A4A4",
"|.	c #DBB6B5",
"1.	c #D4A6A5",
"2.	c #C89695",
"3.	c #815E5E",
"4.	c #D29D9C",
"5.	c #DEBCBB",
"6.	c #7E5A59",
"7.	c #E5C8C7",
"8.	c #8D7473",
"9.	c #786565",
"0.	c #E5E5E5",
"a.	c #E6E6E6",
"b.	c #E8E8E8",
"c.	c #797878",
"d.	c #070000",
"e.	c #060000",
"f.	c #3F2C2B",
"g.	c #624646",
"h.	c #CBB0AF",
"i.	c #5C3C3B",
"j.	c #C5C1C1",
"k.	c #CCCCCC",
"l.	c #624847",
"m.	c #D7AEAD",
"n.	c #E3C5C4",
"o.	c #70605F",
"p.	c #535252",
"q.	c #FEFEFE",
"r.	c #FFFFFF",
"s.	c #878686",
"t.	c #C6ACAB",
"u.	c #D2D2D2",
"v.	c #E2E2E2",
"w.	c #CF9C9B",
"x.	c #D19E9D",
"y.	c #674C4B",
"z.	c #878787",
"A.	c #D3D2D2",
"B.	c #E3E3E3",
"C.	c #452E2D",
"D.	c #C68E8C",
"E.	c #CA9493",
"F.	c #674B4B",
"G.	c #424040",
"H.	c #CDCDCD",
"I.	c #CECECE",
"J.	c #D0D0D0",
"K.	c #6C6B6B",
"L.	c #D6BBBA",
"M.	c #B69F9E",
"N.	c #B79F9F",
"O.	c #A9A9A9",
"P.	c #CFCFCF",
"Q.	c #B7B6B6",
"R.	c #562F27",
"S.	c #402423",
"T.	c #BA7270",
"U.	c #C38685",
"V.	c #030000",
"W.	c #BFA7A6",
"X.	c #090101",
"Y.	c #6D3D33",
"Z.	c #2D1510",
"`.	c #200E0D",
" +	c #603837",
".+	c #9C7170",
"++	c #D29E9D",
"@+	c #DFC2C1",
"#+	c #7F6E6D",
"$+	c #655756",
"%+	c #693F34",
"&+	c #331A13",
"*+	c #8B6766",
"=+	c #D19C9B",
"-+	c #705252",
";+	c #362525",
">+	c #0A0101",
",+	c #221514",
"'+	c #2D1919",
")+	c #C7ADAC",
"!+	c #DEC1C0",
"~+	c #2C2323",
"{+	c #292626",
"]+	c #484747",
"^+	c #474646",
"/+	c #663E33",
"(+	c #613D32",
"_+	c #643E32",
":+	c #6B3F34",
"<+	c #331914",
"[+	c #7E4D4C",
"}+	c #BB7573",
"|+	c #C99392",
"1+	c #C59493",
"2+	c #170505",
"3+	c #040000",
"4+	c #805F5E",
"5+	c #CE9A99",
"6+	c #DDBCBB",
"7+	c #291F1F",
"8+	c #999999",
"9+	c #FDFDFD",
"0+	c #5F3D31",
"a+	c #603D31",
"b+	c #502B23",
"c+	c #41221B",
"d+	c #673E3D",
"e+	c #9A5E5C",
"f+	c #C59291",
"g+	c #C99A99",
"h+	c #617A7D",
"i+	c #5F7A7C",
"j+	c #61787B",
"k+	c #7E5E5D",
"l+	c #A58180",
"m+	c #D7ACAB",
"n+	c #E0BFBE",
"o+	c #2A2120",
"p+	c #818080",
"q+	c #D7D7D7",
"r+	c #D5D5D5",
"s+	c #613D31",
"t+	c #BA8C8B",
"u+	c #CCA1A1",
"v+	c #9EC9CD",
"w+	c #9DCACE",
"x+	c #A2C7CB",
"y+	c #CF9D9C",
"z+	c #D7ADAC",
"A+	c #E4C8C7",
"B+	c #DDC1C0",
"C+	c #1A1212",
"D+	c #AC7372",
"E+	c #BD8988",
"F+	c #9DC7CC",
"G+	c #9CC8CD",
"H+	c #A2C7CC",
"I+	c #DCBBBA",
"J+	c #DFBFBE",
"K+	c #E1C5C4",
"L+	c #C4ABAA",
"M+	c #C3AAA9",
"N+	c #693D32",
"O+	c #683F33",
"P+	c #673E33",
"Q+	c #6F4034",
"R+	c #1A0806",
"S+	c #130403",
"T+	c #A36563",
"U+	c #B37B7A",
"V+	c #9BC5CA",
"W+	c #9BC7CC",
"X+	c #A2C8CC",
"Y+	c #E2C6C5",
"Z+	c #714035",
"`+	c #583027",
" @	c #251111",
".@	c #333435",
"+@	c #6A999D",
"@@	c #81AEB2",
"#@	c #9DC9CD",
"$@	c #A3C9CC",
"%@	c #9CC8CC",
"&@	c #9DC9CE",
"*@	c #80AEB3",
"=@	c #69989D",
"-@	c #333335",
";@	c #62362D",
">@	c #40211A",
",@	c #1E0B08",
"'@	c #1A2526",
")@	c #578084",
"!@	c #729B9F",
"~@	c #90BCC0",
"{@	c #9AC6CA",
"]@	c #99C5C9",
"^@	c #90BCC1",
"/@	c #719B9F",
"(@	c #351A15",
"_@	c #406063",
":@	c #66979D",
"<@	c #93BFC3",
"[@	c #66979B",
"}@	c #406062",
"|@	c #64372E",
"1@	c #0B0101",
"2@	c #26393B",
"3@	c #3D5B5E",
"4@	c #587376",
"5@	c #647C7F",
"6@	c #94989A",
"7@	c #B0A0A1",
"8@	c #D7ABAA",
"9@	c #94989B",
"0@	c #3D5B5D",
"a@	c #26393A",
"b@	c #5A3229",
"c@	c #62372D",
"d@	c #180705",
"e@	c #0F0302",
"f@	c #192526",
"g@	c #639498",
"h@	c #959799",
"i@	c #CD9998",
"j@	c #DDBAB9",
"k@	c #E2C4C3",
"l@	c #95979A",
"m@	c #639499",
"n@	c #170705",
"o@	c #714335",
"p@	c #703F34",
"q@	c #0A0404",
"r@	c #282627",
"s@	c #322323",
"t@	c #A66C6A",
"u@	c #BD7D7B",
"v@	c #D09E9D",
"w@	c #D09F9E",
"x@	c #1A2527",
"y@	c #0A0405",
"z@	c #3A1E17",
"A@	c #1D0A07",
"B@	c #8D5655",
"C@	c #A46765",
"D@	c #B68887",
"E@	c #B68988",
"F@	c #3B1E18",
"G@	c #49271F",
"H@	c #240F0B",
"I@	c #2F1F1F",
"J@	c #A57C7B",
"K@	c #AD8B8A",
"L@	c #B9A2A1",
"M@	c #655656",
"N@	c #170B0B",
"O@	c #412E2D",
"P@	c #E6C9C8",
"Q@	c #806E6D",
"R@	c #190C0C",
"S@	c #1A0E0E",
"T@	c #250F0B",
"U@	c #1B0906",
"V@	c #B08483",
"W@	c #CFA5A4",
"X@	c #C79695",
"Y@	c #6D4035",
"Z@	c #0E0201",
"`@	c #B78A89",
" #	c #DBBFBE",
".#	c #CEA2A1",
"+#	c #BAA2A1",
"@#	c #B38685",
"##	c #BBA2A2",
"$#	c #BF9E9D",
"%#	c #DBB7B6",
"&#	c #100302",
"*#	c #C6ADAC",
"=#	c #572F27",
"-#	c #422E2E",
";#	c #4C3737",
">#	c #534646",
",#	c #433838",
"'#	c #DDBBBA",
")#	c #D3A2A1",
"!#	c #896C6B",
"~#	c #524646",
"{#	c #60352C",
"]#	c #190705",
"^#	c #D4A5A4",
"/#	c #7A5D5D",
"(#	c #785858",
"_#	c #D09C9B",
":#	c #391D17",
"<#	c #C7ADAD",
"[#	c #847271",
"}#	c #5D342A",
"|#	c #522D24",
"1#	c #8E7B7A",
"2#	c #A89191",
"3#	c #342B2B",
"4#	c #E0C4C3",
"5#	c #E6C8C7",
"6#	c #785958",
"7#	c #E1C4C3",
"8#	c #160E0E",
"9#	c #5C4E4E",
"0#	c #5D4F4F",
"a#	c #5E5050",
"b#	c #342A2A",
"c#	c #553D3D",
"d#	c #5A4A49",
"e#	c #6C3C32",
"f#	c #5F362C",
"g#	c #2A130F",
"h#	c #61362C",
"i#	c #3D1F19",
"j#	c #5C332A",
"k#	c #512C23",
"l#	c #6A3C31",
"    . + @ @ @ @ @ @ @ @ # @ @ @ @ @ @ @ @ @ @ @ # @ @ @ @ @ @ @ @ @ @ @ @ @ @ @ @ @ @ @ @ # $ % $ @ @ @ @ @ @ @ @ @ @ @ @ @ @ @ ",
"@ @ @ @ @ @ @ @ @ @ %   &   % % # @ @ @ @ @ @ @ @ @ @ @ @ @ * = = * @ @ @ @ @ @ @ @ @ @ @ @ @ @ @ @ # % @ @ @ @ @ @ @ @ @ @ @ @ ",
"@ @ @ @ @ @ @ @ @ @ # +   # # # @ @ @ @ @ @ @ @ @ @ @ @ @ @ @ * * @ @ @ @ @ @ @ @ @ @ @ @ @ @ @ @ + @ @ @ @ @ @ @ @ @ @ @ @ @ @ ",
"@ = @ @ @ @ @ @ @ @ @ @ # + @ @ @ @ @ @ @ @ @ @ @ @ @ @ @ @ @ @ @ @ @ @ @ % # @ @ @ @ @ @ @ @ @ @ @ @ @ @ @ @ @ @ * * = = * @ @ ",
"@ @ @ @ @ @ @ @ @ @ @ @ @ @ @ @ @ @ @ @ @ @ @ @ @ @ # - # # # # # # # # ; # @ @ @ @ @ @ @ @ @ @ @ @ @ @ @ @ @ @ @ @ @ @ @ @ @ @ ",
"@ @ @ @ @ @ @ @ @ @ @ @ @ @ @ @ @ @ @ @ @ @ @ @ @ > , , , , , , , , , , , , > @ @ @ @ @ @ @ @ @ @ @ @ @ @ @ @ @ @ @ @ @ @ @ @ @ ",
"@ @ @ @ @ @ @ @ @ @ @ @ @ @ @ @ @ @ @ @ @ ' ) ) ! ~ { { { { { { { { { { { { ~ ! ) ) ' @ @ @ @ @ @ @ @ @ @ @ @ @ @ @ @ @ @ @ @ @ ",
"@ @ @ @ @ @ @ @ @ @ @ @ @ @ @ @ @ @ @ @ @ ] ^ { / ( ( ( ( ( ( ( ( ( ( ( ( ( ( / { ^ ] @ @ @ @ @ @ @ @ @ @ @ @ @ @ @ @ @ @ @ @ @ ",
"@ @ @ @ @ @ @ @ @ @ @ @ @ @ @ @ @ @ _ : < [ } { ( | 1 1 1 1 1 1 1 1 1 1 1 1 | ( { } 2 < : _ @ @ @ @ @ @ @ @ @ @ @ @ @ @ @ @ @ @ ",
"@ @ @ @ @ @ @ @ @ @ @ % 3 # % @ @ @ 4 { { { 5 6 ( 7 8 8 8 8 8 8 8 8 8 8 8 8 7 ( 6 5 { { { 4 @ @ @ @ @ @ @ @ @ @ @ @ @ @ @ @ @ @ ",
"@ @ @ @ @ @ @ @ @ @ @ @ @ @ @ @ 9 0 a { { b c d e f g g g g g g g g g g g g f e d c b { { a 0 9 @ @ @ @ @ @ @ @ @ @ @ @ @ @ @ @ ",
"@ @ @ @ @ @ @ @ @ @ @ @ @ @ @ h i j k l m n o p q r r r r r r r r r r r r r r q p o n m l k j i h @ @ @ @ @ @ @ @ @ @ @ @ @ @ @ ",
"@ @ @ @ @ @ @ @ @ @ @ @ * @ * s t ( u v w x r r r r r r r r r r r r r r r r r r r r x w v u ( t y @ # $ $ $ $ z z $ @ @ @ @ @ @ ",
"@ @ @ @ @ @ @ @ @ @ * = A B C D E F G H g r r r r r r r r r r r r r r r r r r r r r r g H G F E I J K @ @ @ @ # $ $ $ $ % @ @ @ ",
"@ @ @ @ @ @ @ @ @ @ @ = L M { ( N O P x r r r r r r r r r r r r r r r r r r r r r r r r x P O N ( { Q @ @ @ @ @ @ @ @ @ @ @ @ @ ",
"@ @ @ @ @ @ @ @ @ @ @ R S , ( T U V W r r r r r r r r r r r r r r r r r r r r r r r r r r W V U T ( , S R @ @ @ @ @ @ @ @ @ @ @ ",
"@ @ @ @ @ @ @ @ @ @ @ X ^ { ( Y Z r r r r r r r r r r r r r r r r r r r r r r r r r r r r r r Z Y ( { ^ X @ @ @ @ @ @ @ @ @ @ @ ",
"@ @ @ @ @ @ @ @ @ @ @ R ^ ( ( ` r r r r r r r r r r r r r r r r r r r r r r r r r r r r r r r r ` ( ( ^ R @ @ @ @ @ @ @ @ @ @ @ ",
"@ @ @ @ @ @ @ @ @ @  .J ..+.@.#.r r r r r r r r r r r r r r r r r r r r r r r r r r r r r r r r #.@.+...J  .@ @ @ @ @ @ @ @ @ @ ",
"@ @ @ @ @ @ @ @ @ @ $.{ ( %.v &.r r r r r r r r r r r r r r r r r r r r r r r r r r r r r r r r &.v %.( { $.@ @ @ @ @ @ @ @ @ @ ",
"@ @ @ @ @ @ @ @ @ @ *.{ ( =.-.;.r r r r r r r r r r r r r r r r r r r r r r r r r r r r r r r r ;.-.=.( { *.@ @ @ @ @ @ @ @ @ @ ",
"@ + >.% % % # @ ] X ,.'.).!.~.r r r r r r r r r r r r r r r r r r r r r r r r r r r r r r r r r r ~.!.).'.{.R ] @ @ @ # * * @ @ ",
"@ . # # . . # @ ].{ { ^./.(.q r r x x x x x x x r r r r r r r r r r r r r r r r x x x x x x x r r q (./.^.{ { ].@ @ @ # * @ @ @ ",
"@ @ @ @ @ @ @ @ ].{ { ^./.(.q _.:.<.[.[.[.[.[.}.|.g r r r r r r r r r r r r g |.}.[.[.[.[.[.<.:._.q (./.^.{ { ].@ @ @ @ @ @ @ @ ",
"@ @ @ @ @ @ @ @ ].{ { ^./.(.x 1.2.( ( ( ( ( ( 3.4.5.r r r r r r r r r r r r 5.4.6.( ( ( ( ( ( 2.1.x (./.^.{ { ].@ @ @ @ @ @ @ @ ",
"@ @ @ @ @ @ @ @ ].{ { ^./.(.7.8.9.0.a.b.c.d.e.f.g.h.r r r r r r r r r r r r h.i.j.a.a.k.( { 6 l.8.7.(./.^.{ { ].@ @ @ @ @ @ * @ ",
"@ @ @ @ @ @ @ @ ].{ { ^./.m.n.o.p.q.r.r.s.d.{ { ( t.r r r r r r r r r r r r t.( u.r.r.v.( { { { o.n.m./.^.{ { ].@ @ @ @ @ @ @ @ ",
"@ @ @ @ @ @ @ @ ].{ { ^.w.w.x.y.p.q.r.r.z.d.{ { ( t.r r r x x x x x x r r r t.( A.r.r.B.( { { { y.x.w.w.^.{ { ].@ @ @ @ @ @ @ @ ",
"@ @ @ @ @ @ @ @ ].{ { C.D.E.v F.G.H.I.J.K.d.{ { ( t.r r L.M.N.N.N.N.M.L.r r t.( O.P.I.Q.( { { { F.v E.D.C.{ { ].@ @ @ @ @ @ @ @ ",
"@ @ @ @ @ @ @ @ R.{ { S.T.U.x.F.V.( ( ( ( { { { ( t.r 7.W.( ( ( ( ( ( W.7.r t.( ( ( ( ( X.{ { { F.x.U.T.S.{ { R.@ @ @ @ @ @ @ @ ",
"  3   @ @ @ @ @ Y.i Z.`. +.+++F.{ { { { { { { { ( t.@+#+$+( { { { { ( $+#+@+t.( { { { { { { { { F.++.+ +`.Z.i Y.@ @ @ @ @ @ @ @ ",
"%+%+%+3 @ @ @ @ @ % &+{ ( *+=+-+;+>+{ { { { d.,+'+)+!+~+{+]+^+^+^+^+]+{+~+!+)+'+,+d.{ { { { >+;+-+=+*+( { *.@ @ @ @ @ @ @ @ @ @ ",
"/+(+_+:+@ @ @ @ @ @ <+{ ( [+}+|+1+2+3+3+3+V.( 4+5+6+!+7+8+r.9+9+9+9+r.8+7+!+6+5+4+( V.3+3+3+2+1+|+}+[+( { <+@ @ @ @ @ @ @ @ @ @ ",
"0+0+a+  @ @ @ @ @ @ b+c+( d+e+f+g+h+i+i+i+j+k+l+m+n+!+o+p+q+r+r+r+r+q+p+o+!+n+m+l+k+j+i+i+i+h+g+f+e+d+( c+b+@ @ @ @ @ @ @ @ @ @ ",
"s+s+/+# @ @ @ @ @ @ @ 9 ^ ( ( t+u+v+w+w+w+x+y+z+A+r B+C+( ( ( ( ( ( ( ( C+B+r A+z+y+x+w+w+w+v+u+t+( ( ^ X + % @ @ @ @ @ @ @ @ @ ",
"+ . # @ @ @ @ @ @ @ @ X ^ { ( D+E+F+G+G+G+H+I+J+r r K+L+M+M+M+M+M+M+M+M+L+K+r r J+I+H+G+G+G+F+E+D+( { ^ N+O+P+3 @ % # @ @ @ @ @ ",
"# @ @ @ @ @ Q+% @ @ @ R R+S+( T+U+V+W+G+G+X+Y+r r r r r r r r r r r r r r r r r r Y+X+G+G+W+V+U+T+( S+R+R @ @ @ @ % $ $ # @ @ @ ",
"@ @ @ @ @ @ Q+% @ @ @ @ Z+`+d. @.@+@@@#@#@$@Y+r r r r r r r r r r r r r r r r r r Y+X+%@&@*@=@-@ @d.`+Z+@ @ @ @ @ @ @ @ @ @ @ @ ",
"@ @ @ @ @ @ @ @ @ @ @ @ @ ;@>@,@'@)@!@~@{@X+I+J+r r r r r r r r r r r r r r r r J+I+x+]@^@/@)@'@,@>@;@@ * @ @ @ @ @ @ @ @ @ @ @ ",
"@ @ @ @ @ @ @ @ @ @ @ @ @ @ @ (@d.( _@:@<@x+w.m+A+r r r r r r r r r r r r r r A+m+w.x+<@[@}@( d.(@@ @ @ @ @ @ @ @ @ @ @ @ @ @ @ ",
"@ @ @ @ @ @ @ @ @ @ @ @ @ @ @ |@4 1@2@3@4@5@6@7@8@n+r r r r r r r r r r r r n+8@7@9@5@4@0@a@1@b@c@# % @ @ @ @ @ @ @ @ @ @ @ @ @ ",
"@ @ @ @ @ @ @ @ @ @ @ @ @ @ @ @ 9 d@e@e.3+f@g@h@i@j@k@;.n.n.n.n.n.n.n.n.;.k@j@i@l@m@f@3+e.e@n@X % # # @ @ @ @ @ @ @ @ @ @ % $ o@",
"@ @ @ @ @ @ @ @ @ @ @ @ @ @ @ @ @ p@Q { { q@'@r@s@t@u@v@w@w@w@w@w@w@w@w@v@u@t@s@r@x@y@{ { Q p@@ @ @ @ @ @ @ @ @ @ @ @ @ @ # # * ",
"@ @ @ @ @ @ @ @ @ @ @ @ @ @ @ @ @ @ ;@z@A@{ { { ( B@C@D@E@E@E@E@E@E@E@E@D@C@B@( { { { A@z@;@@ @ @ @ @ @ @ @ @ @ @ @ @ @ @ @ @ @ ",
"@ @ @ @ @ @ @ @ @ @ @ @ @ @ @ @ @ @ @ @ F@t ( ( ( ( ( ( ( ( ( ( ( ( ( ( ( ( ( ( ( ( t F@@ @ @ @ @ @ @ @ @ @ @ @ @ @ @ @ @ @ @ @ ",
"@ @ @ @ @ @ @ @ @ @ @ @ @ @ @ @ @ @ i G@H@I@J@K@L@M@d.{ { { { { { { { { { d.M@L@K@J@I@H@G@i @ @ @ @ @ @ @ @ @ @ @ @ @ @ @ @ @ @ ",
"@ @ @ @ @ # $ $ # @ @ @ * * @ @ @ * 4 d.N@O@/.z+P@Q@R@S@S@S@S@S@S@S@S@S@S@R@Q@P@z+/.O@N@d.4 @ @ @ @ @ @ @ @ @ @ @ @ @ @ @ @ @ @ ",
"# @ @ @ @ @ @ @ @ @ @ @ = L A = 9 T@U@( V@g+g k@x W@X@X@X@X@X@X@X@X@X@X@X@X@W@x k@g g+V@( U@T@9 @ @ @ % $ % $ + $ @ @ @ @ @ @ @ ",
"Y@@ @ @ @ @ @ @ @ @ @ @ @ @ * @ 9 Z@{ ( `@w@n. #` .#y+Z Z Z Z Z Z Z Z Z Z y+.#`  #n.w@`@( { Z@9 # $ $ # # + z & z % @ @ @ @ @ @ ",
"# @ @ @ @ @ @ @ @ @ * = = = @ = 9 Z@{ ( `@w@r +#( @#v@n.q q q q q q q q n.v@@#( +#r w@`@( { Z@X $ % z & z & &   @ @ @ @ @ @ @ @ ",
"@ @ @ @ @ @ @ @ @ @ @ @ @ @ @ @ 9 Z@{ ( `@w@r ##( $#%#r r r r r r r r r r %#$#( ##r w@`@( { Z@9 @ @ # @ @ @ @ @ @ @ @ @ @ % @ @ ",
"@ @ @ @ @ @ @ @ @ @ @ @ @ @ @ @ 9 &#{ ( `@w@n.+#( *#r r r r r r r r r r r r *#( +#n.w@`@( { &#9 @ @ @ @ @ @ @ @ @ @ @ @ @ @ @ @ ",
"@ @ @ @ @ @ @ @ @ @ @ @ @ @ @ @ @ X =#3+-#;#>#,#( t.r r '#)#!#~#~#!#)#'#r r t.( ,#>#;#-#3+=#X @ @ @ @ @ @ @ * * = = = = = * * @ ",
"@ @ @ @ @ @ @ @ @ @ @ @ @ @ @ @ @ @ {#,.]#{ { { ( t.r r 5.^#/#3+3+(#_#j@r r t.( { { { ]#,.{#@ @ @ @ @ @ @ @ @ @ @ @ @ * = = = * ",
"@ @ @ @ @ @ @ @ @ @ @ @ @ # % % @ @ @ @ :#{ { { ( <#~.r r 7.[#V.3+(#_#j@r ~.<#( { { { :#@ @ @ @ @ @ @ @ @ @ @ @ @ @ @ @ @ @ @ @ ",
"@ @ @ @ @ @ @ @ @ @ @ @ @ @ @ @ @ @ @ @ }#|#Z@{ ( 1#2#K+r 7.[#V.3+(#_#j@K+2#1#( { Z@|#}#@ @ @ @ @ @ @ @ @ @ @ @ @ @ @ @ @ @ @ @ ",
"@ @ @ @ @ @ @ @ @ @ Z+# @ @ @ @ @ @ @ @ @ p@&#{ / ( 3#4#x 5#[#V.3+6#v j@7#3#( / { &#p@@ @ @ @ @ @ @ @ @ @ @ @ @ @ @ @ @ @ @ @ @ ",
"@ @ @ @ @ # % @ @ @ @ @ @ @ @ @ @ @ @ @ @ # h ].{ { 8#9#0#a#b#d.d.I@c#d#9#8#{ { ].e#@ @ @ @ @ @ @ @ @ @ @ @ @ @ @ @ @ @ @ @ @ @ ",
"@ @ @ @ # z z % @ @ @ @ @ @ @ @ @ @ % + $ $ $ f#g#d@{ { { { I Z.Z.I { { { { d@g#h#@ @ @ @ @ @ @ @ @ @ @ @ @ @ @ @ @ @ @ @ @ @ @ ",
"@ @ @ @ @ # @ @ @ @ @ @ @ @ @ @ @ @ @ @ @ @ @ @ @ i#{ { { { ;@@ @ ;@{ { { { i#@ @ @ @ @ @ @ @ # @ @ @ % @ @ @ @ @ @ @ @ @ @ @ @ ",
"@ @ % z # @ @ @ @ @ @ @ @ @ @ @ @ @ @ @ @ @ @ @ @ j#J J J k#l#@ @ l#k#J J J j#@ @ @ @ @ @ @ @ @ @ @ @ $   # @ @ @ @ @ @ @ @ @ @ ",
"@ @ + % @ @ @ @ @ @ @ @ @ @ @ @ * @ @ @ @ @ @ @ @ @ @ = * @ @ @ @ @ @ @ @ @ @ @ @ @ @ @ @ @ @ @ @ @ @ @ @ @ @ @ @ @ @ @ @ @ @ @ ",
"@ @ @ @ @ @ @ @ @ @ @ @ @ @ @ @ @ @ @ @ @ @ @ @ @ @ @ * @ @ @ @ @ @ @ @ @ @ @ @ @ @ @ @ @ @ @ @ @ @ * @ @ @ @ @ @ @ @ @ @ * * @ ",
"@ @ @ @ @ @ @ @ @ @ @ @ @ @ @ @ @ @ @ @ @ @ @ @ @ @ @ @ @ @ @ @ @ @ @ @ @ @ @ @ @ @ @ @ @ @ @ @ @ @ @ @ @ @ @ @ @ @ @ @ @ @ @ @ "};
