/* XPM */
static char * wall_xpm[] = {
"64 64 120 2",
"  	c #6F4035",
". 	c #714136",
"+ 	c #704035",
"@ 	c #734136",
"# 	c #724136",
"$ 	c #704135",
"% 	c #714135",
"& 	c #6D4034",
"* 	c #2F2F2F",
"= 	c #734336",
"- 	c #734236",
"; 	c #4E4D4E",
"> 	c #8F8E8E",
", 	c #2F2F30",
"' 	c #6E4034",
") 	c #B1B1B1",
"! 	c #8F8E8F",
"~ 	c #181411",
"{ 	c #191411",
"] 	c #6C4034",
"^ 	c #6E4035",
"/ 	c #2E2E2F",
"( 	c #2E2F2F",
"_ 	c #6A3F33",
": 	c #8F8F8F",
"< 	c #352D26",
"[ 	c #231D19",
"} 	c #683F33",
"| 	c #4D4C4D",
"1 	c #4E4E4E",
"2 	c #231E19",
"3 	c #303030",
"4 	c #734436",
"5 	c #734636",
"6 	c #734536",
"7 	c #221D19",
"8 	c #42362F",
"9 	c #4F4F4F",
"0 	c #504F4F",
"a 	c #929391",
"b 	c #181311",
"c 	c #221D18",
"d 	c #342C26",
"e 	c #42362E",
"f 	c #929191",
"g 	c #303031",
"h 	c #352C26",
"i 	c #41352E",
"j 	c #241E19",
"k 	c #2E2E2E",
"l 	c #8C8C8C",
"m 	c #41362E",
"n 	c #4C4B4C",
"o 	c #8C8C8D",
"p 	c #4C4C4C",
"q 	c #AEAFAF",
"r 	c #8D8D8D",
"s 	c #AEAFB0",
"t 	c #AFB0B0",
"u 	c #8D8D8E",
"v 	c #693F34",
"w 	c #4C4C4D",
"x 	c #4D4D4D",
"y 	c #504F50",
"z 	c #663E33",
"A 	c #613D32",
"B 	c #643E32",
"C 	c #6B3F34",
"D 	c #5F3D31",
"E 	c #603D31",
"F 	c #221C18",
"G 	c #332B25",
"H 	c #362D27",
"I 	c #505050",
"J 	c #303131",
"K 	c #613D31",
"L 	c #40352E",
"M 	c #342B25",
"N 	c #28221C",
"O 	c #2D2D2E",
"P 	c #171311",
"Q 	c #342C25",
"R 	c #231D18",
"S 	c #89898A",
"T 	c #171310",
"U 	c #40342E",
"V 	c #919091",
"W 	c #919191",
"X 	c #241E1A",
"Y 	c #714335",
"Z 	c #322B25",
"` 	c #3F342D",
" .	c #40342D",
"..	c #8D8C8D",
"+.	c #4F4E4F",
"@.	c #919090",
"#.	c #B5B4B4",
"$.	c #241F1A",
"%.	c #251F1A",
"&.	c #322A24",
"*.	c #322A25",
"=.	c #211C18",
"-.	c #AEAEAF",
";.	c #4F4E4E",
">.	c #B5B5B4",
",.	c #ADADAD",
"'.	c #6D4035",
").	c #3F332C",
"!.	c #211C17",
"~.	c #171210",
"{.	c #211B17",
"].	c #27221C",
"^.	c #241F19",
"/.	c #27211C",
"(.	c #181310",
"_.	c #26211B",
":.	c #27211B",
"<.	c #25201A",
"[.	c #25201B",
"}.	c #26201B",
"    . + @ @ @ @ @ @ @ @ # @ @ @ @ @ @ @ @ @ @ @ # @ @ @ @ @ @ @ @ @ @ @ @ @ @ @ @ @ @ @ @ # $ % $ @ @ @ @ @ @ @ @ @ @ @ @ @ @ @ ",
"@ @ @ @ @ @ @ @ @ @ %   &   % % # @ @ @ @ @ @ @ @ @ @ * * * * = = - @ @ @ @ @ @ @ @ @ @ @ @ @ @ @ @ # % @ @ @ @ @ @ @ @ @ @ @ @ ",
"@ @ @ @ @ @ @ @ @ @ # +   # # # @ @ @ @ @ @ @ @ @ @ @ * * * * - - @ @ @ @ @ @ @ @ @ @ @ @ @ @ @ @ + @ @ @ @ @ @ @ @ @ @ @ @ @ @ ",
"@ = @ @ @ @ @ @ @ @ @ @ # + @ @ @ @ @ @ @ @ @ @ @ @ @ * * ; ; * * @ @ @ @ % # @ @ @ @ @ @ @ @ @ @ @ @ @ @ @ @ @ @ - - = = - @ @ ",
"@ @ @ @ @ @ @ @ @ @ @ @ @ @ @ @ @ @ @ @ @ @ @ @ @ @ @ * * ; ; * * @ @ @ - @ @ @ @ @ @ @ @ @ @ @ @ @ @ @ @ @ @ @ @ @ @ @ @ @ @ @ ",
"@ @ @ @ @ @ @ @ @ @ @ @ @ @ @ @ @ @ @ @ @ @ @ @ @ @ @ * * > > > > , , @ @ @ @ @ @ @ @ @ @ @ @ @ @ @ @ @ @ @ @ @ @ @ @ @ @ @ @ @ ",
"@ @ @ @ @ @ @ @ @ @ @ @ @ @ @ @ @ @ @ @ @ @ @ @ @ @ @ * * > > > > , , @ @ # @ @ @ @ @ @ @ @ @ @ @ @ @ @ @ @ @ @ @ @ @ @ @ @ @ @ ",
"@ @ @ @ @ @ @ @ @ @ @ @ @ @ @ @ @ @ @ @ @ @ #   ' & & * * ) ) ! ! ; ; , , ~ ~ { { { { { { { { @ @ @ @ @ @ @ @ @ @ @ @ @ @ @ @ @ ",
"@ @ @ @ @ @ @ @ @ @ @ @ @ @ @ @ @ @ @ @ @ # ' ] & & & * * ) ) ! ! ; ; , , ~ ~ { { { { { { { { @ @ @ @ @ @ @ @ @ @ @ @ @ @ @ @ @ ",
"@ @ @ @ @ @ @ @ @ @ @ % ^ # % / / ( ( @ @ @ $ & ] _ & * * > > ) ) : : : : < < < < < < [ [ [ [ { { @ @ @ @ @ @ @ @ @ @ @ @ @ @ @ ",
"@ @ @ @ @ @ @ @ @ @ @ @ @ @ @ / / ( ( @ @ @ @ # $ ] } * * > > ) ) : : : : < < < < < < [ [ [ [ { { @ @ @ @ @ @ @ @ @ @ @ @ @ @ @ ",
"@ @ @ @ @ @ @ @ @ @ @ @ @ @ @ / / | | ( ( ( ( @ @ ~ ~ * * ; ; : : : : 1 1 [ [ < < < < < < [ [ 2 2 { { 3 3 3 3 3 3 3 3 @ @ @ @ @ ",
"@ @ @ @ @ @ @ @ @ @ @ @ - @ - / / | | ( ( ( ( @ @ ~ ~ * * ; ; : : : : 1 1 [ [ < < < < < < [ [ 2 2 { { 3 3 3 3 3 3 3 3 @ @ @ @ @ ",
"@ @ @ @ @ @ @ @ @ @ - = 4 5 6 = - ( ( | | ~ ~ ~ ~ 7 7 ~ ~ ; ; ; ; ; ; 1 1 [ [ < < < < 8 8 2 2 2 2 { { 9 9 0 0 a a 3 3 $ % @ @ @ ",
"@ @ @ @ @ @ @ @ @ @ @ = 6 6 6 = - ( ( | | ~ ~ ~ ~ 7 7 ~ ~ ; ; ; ; ; ; 1 1 [ [ < < < < 8 8 2 2 2 2 { { 9 9 0 0 a a 3 3 @ @ @ @ @ ",
"@ @ @ @ @ @ @ @ @ @ @ @ @ @ @ @ @ ( ( b b c c d d d d e e ~ ~ ; ; ; ; [ [ < < 8 8 8 8 [ [ 2 2 2 2 2 2 { { f f 0 0 g g @ @ @ @ @ ",
"@ @ @ @ @ @ @ @ @ @ @ @ @ @ @ @ @ ( ( b b c c d d d d e e ~ ~ ; ; ; ; [ [ < < 8 8 8 8 [ [ 2 2 2 2 2 2 { { f f 0 0 g g @ @ @ @ @ ",
"@ @ @ @ @ @ @ @ @ @ @ @ @ @ @ @ @ @ @ b b d d d d d d d d 8 8 h h h h < < 8 8 [ [ [ [ [ [ 2 2 2 2 2 2 { { 0 0 0 0 g g @ @ @ @ @ ",
"@ @ @ @ @ @ @ @ @ @ @ @ @ @ @ @ @ @ . b b d d d d d d d d 8 8 h h h h < < 8 8 [ [ [ [ [ [ 2 2 2 2 2 2 { { 0 0 0 0 g g @ @ @ @ @ ",
"@ @ @ @ @ @ @ @ @ @ @ @ @ @ @ @ @ @ # ~ ~ c c i i d d d d d d h h 8 8 [ [ [ [ [ [ [ [ 2 2 2 2 2 2 2 2 2 2 { { 0 0 g g @ @ @ @ @ ",
"@ @ @ @ @ @ @ @ @ @ @ @ @ @ @ @ @ @ @ ~ ~ c c i i d d d d d d h h 8 8 [ [ [ [ [ [ [ [ 2 2 2 2 2 2 2 2 2 2 { { 0 0 g g @ @ @ @ @ ",
"@ + ] % % / / / / # + $ @ b b b b b b c c c c 7 7 e e e e 8 8 [ [ [ [ < < < < [ [ [ [ 2 2 2 2 2 2 2 2 j j { { g g @ @ # - - @ @ ",
"@ . # # . / / / / @ % . # b b b b b b c c c c 7 7 e e e e 8 8 [ [ [ [ < < < < [ [ [ [ 2 2 2 2 2 2 2 2 j j { { g g @ @ # - @ @ @ ",
"@ @ @ @ @ k k l l / / / / b b d d d d c c d d m m [ [ [ [ [ [ h h < < < < < < < < [ [ 2 2 2 2 2 2 2 2 j j { { @ @ @ @ @ @ @ @ @ ",
"@ @ @ @ @ k k l l / / / / b b d d d d c c d d m m [ [ [ [ [ [ h h < < < < < < < < [ [ 2 2 2 2 2 2 2 2 j j { { @ @ @ @ @ @ @ @ @ ",
"@ @ @ @ @ / / n n o o p p / / ( ( b b ~ ~ c c d d [ [ [ [ [ [ h h < < < < < < < < 2 2 2 2 2 2 2 2 2 2 j j j j { { @ @ @ @ @ - @ ",
"@ @ @ @ @ / / n n o o p p / / ( ( b b ~ ~ c c d d [ [ [ [ [ [ h h < < < < < < < < 2 2 2 2 2 2 2 2 2 2 j j j j { { @ @ @ @ @ @ @ ",
"@ @ @ @ @ @ @ k k o o q q o o r r | | b b d d d d e e [ [ d d h h < < < < < < 8 8 2 2 2 2 2 2 2 2 2 2 j j j j { { @ @ @ @ @ @ @ ",
"@ @ @ @ @ @ @ k k o o q q o o r r | | b b d d d d e e [ [ d d h h < < < < < < 8 8 2 2 2 2 2 2 2 2 2 2 j j j j { { @ @ @ @ @ @ @ ",
"@ @ @ @ @ @ @ b b p p o o s s t t r r u u d d d d d d [ [ d d h h < < < < < < [ [ [ [ 2 2 2 2 2 2 2 2 j j j j { { g g @ @ @ @ @ ",
"  ^   @ @ @ @ b b p p o o s s t t r r u u d d d d d d [ [ d d h h < < < < < < [ [ [ [ 2 2 2 2 2 2 2 2 j j j j { { g g @ @ @ @ @ ",
"v v v ^ @ @ @ b b c c w w o o r r r r x x d d d d d d [ [ h h h h < < < < 8 8 [ [ 2 2 2 2 2 2 2 2 2 2 j j j j { { y y g g @ @ @ ",
"z A B C @ @ @ b b c c w w o o r r r r x x d d d d d d [ [ h h h h < < < < 8 8 [ [ 2 2 2 2 2 2 2 2 2 2 j j j j { { y y g g @ @ @ ",
"D D E   @ b b F F G G c c w w | | | | c c d d d d m m [ [ h h h h < < 8 8 [ [ [ [ 2 2 2 2 2 2 2 2 H H j j j j { { g g I I J J @ ",
"K K z # @ b b F F G G c c w w | | | | c c d d d d m m [ [ h h h h < < 8 8 [ [ [ [ 2 2 2 2 2 2 2 2 H H j j j j { { g g I I J J @ ",
"+ . # @ @ b b G G G G L L c c c c c c i i c c d d d d [ [ [ [ 8 8 8 8 [ [ [ [ [ [ [ [ 2 2 2 2 H H H H H H j j j j { { J J @ @ @ ",
"# @ @ @ @ b b G G G G L L c c c c c c i i c c d d d d [ [ [ [ 8 8 8 8 [ [ [ [ [ [ [ [ 2 2 2 2 H H H H H H j j j j { { J J @ @ @ ",
"@ @ @ @ @ b b G G G G G G L L M M i i d d d d d d d d [ [ [ [ [ [ [ [ [ [ [ [ [ [ [ [ 2 2 2 2 2 2 2 2 j j j j j j { { N N N N @ ",
"@ @ @ @ @ b b G G G G G G L L M M i i d d d d d d d d [ [ [ [ [ [ [ [ [ [ [ [ [ [ [ [ 2 2 2 2 2 2 2 2 j j j j j j { { N N N N @ ",
"@ @ @ O O P P G G G G G G G G c c Q Q Q Q d d d d d d c c R R [ [ [ [ [ [ [ [ < < [ [ { { 2 2 { { { { { { j j j j { { N N N N @ ",
"@ @ @ O O P P G G G G G G G G c c Q Q Q Q d d d d d d c c R R [ [ [ [ [ [ [ [ < < [ [ { { 2 2 { { { { { { j j j j { { N N N N @ ",
"@ O O S S T T G G G G G G F F U U M M Q Q Q Q c c c c ~ ~ 7 7 [ [ [ [ [ [ < < < < < < [ [ { { V V W W 9 9 { { j j { { X X % $ Y ",
"@ O O S S T T G G G G G G F F U U M M Q Q Q Q c c c c ~ ~ 7 7 [ [ [ [ [ [ < < < < < < [ [ { { V V W W 9 9 { { j j { { X X # # - ",
"@ @ @ O O T T Z Z ` ` G G  . .G G G G M M c c ....| | c c c c c c [ [ [ [ h h < < [ [ [ [ +.+.@.@.#.#.W W 0 0 j j { { @ @ @ @ @ ",
"@ @ @ O O T T Z Z ` ` G G  . .G G G G M M c c ....| | c c c c c c [ [ [ [ h h < < [ [ [ [ +.+.@.@.#.#.W W 0 0 j j { { @ @ @ @ @ ",
"@ $.$.%.%.T T &.&.*.*.=.=.G G G G G G G G p p -.-.| | c c c c c c c c [ [ [ [ [ [ [ [ { { ;.;.+.+.@.@.>.>.W W 0 0 { { @ @ @ @ @ ",
"@ $.$.%.%.T T &.&.*.*.=.=.G G G G G G G G p p -.-.| | c c c c c c c c [ [ [ [ [ [ [ [ { { ;.;.+.+.@.@.>.>.W W 0 0 { { @ @ @ @ @ ",
"# $.$.$.$.T T &.&.&.&.=.=.Z Z G G G G G G ,.,.n n b b c c c c c c c c c c R R [ [ ~ ~ { { [ [ ;.;.+.+.+.+.W W W W { { @ @ @ @ @ ",
"'.$.$.$.$.T T &.&.&.&.=.=.Z Z G G G G G G ,.,.n n b b c c c c c c c c c c R R [ [ ~ ~ { { [ [ ;.;.+.+.+.+.W W W W { { @ @ @ @ @ ",
"# @ @ $.$.$.$.T T ).).!.!.&.&.*.*.G G  . .F F F F F F b b c c c c b b c c ~ ~ ~ ~ [ [ [ [ [ [ [ [ [ [ +.+.+.+.>.>.{ { @ @ @ @ @ ",
"@ @ @ $.$.$.$.T T ).).!.!.&.&.*.*.G G  . .F F F F F F b b c c c c b b c c ~ ~ ~ ~ [ [ [ [ [ [ [ [ [ [ +.+.+.+.>.>.{ { @ @ % @ @ ",
"@ @ @ @ @ $.$.~.~.{.{.!.!.!.!.).).=.=.=.=.G G F F F F F F F F c c c c c c c c ~ ~ R R [ [ [ [ [ [ [ [ [ [ { { { { ].].@ @ @ @ @ ",
"@ @ @ @ @ $.$.~.~.{.{.!.!.!.!.).).=.=.=.=.G G F F F F F F F F c c c c c c c c ~ ~ R R [ [ [ [ [ [ [ [ [ [ { { { { ].].= = - - @ ",
"@ @ @ @ @ ^.^.$.$.~.~.{.{.!.!.!.!.!.!.&.&.=.=.G G F F F F F F F F c c c c c c b b c c c c [ [ [ [ [ [ { { { { /./././.- = = = - ",
"@ @ @ @ @ ^.^.$.$.~.~.{.{.!.!.!.!.!.!.&.&.=.=.G G F F F F F F F F c c c c c c b b c c c c [ [ [ [ [ [ { { { { /./././.@ @ @ @ @ ",
"@ @ @ @ @ @ @ $.$.$.$.~.~.~.~.!.!.!.!.!.!.=.=.=.=.=.=.F F F F F F F F c c c c b b c c ~ ~ ~ ~ ~ ~ ~ ~ /./././././.@ @ @ @ @ @ @ ",
"@ @ @ @ @ @ @ $.$.$.$.~.~.~.~.!.!.!.!.!.!.=.=.=.=.=.=.F F F F F F F F c c c c b b c c ~ ~ ~ ~ ~ ~ ~ ~ /./././././.@ @ @ @ @ @ @ ",
"@ @ @ @ @ # % @ @ $.$.$.$.$.$.~.~.T T T T T T T T T T T T T T (.(.(.(.b b b b b b b b _._._._._._._._.:.:.:.:.@ @ @ @ @ @ @ @ @ ",
"@ @ @ @ # ' ' % @ $.$.$.$.$.$.~.~.T T T T T T T T T T T T T T (.(.(.(.b b b b b b b b _._._._._._._._.:.:.:.:.@ @ @ @ @ @ @ @ @ ",
"@ @ @ @ @ # @ @ @ @ @ ^.^.$.$.$.$.$.$.$.$.$.$.%.%.%.%.<.<.<.<.<.<.[.[.[.[.}.}.}.}.}.}.}.}._._._._._._.% @ @ @ @ @ @ @ @ @ @ @ @ ",
"@ @ % ' # @ @ @ @ @ @ ^.^.$.$.$.$.$.$.$.$.$.$.%.%.%.%.<.<.<.<.<.<.[.[.[.[.}.}.}.}.}.}.}.}._._._._._._.$   # @ @ @ @ @ @ @ @ @ @ ",
"@ @ + % @ @ @ @ @ @ @ @ @ @ @ $.$.$.$.$.$.$.$.$.$.$.$.%.%.<.<.<.<.<.<.[.[.[.[.}.}.}.}.@ @ @ @ @ @ @ @ @ @ @ @ @ @ @ @ @ @ @ @ @ ",
"@ @ @ @ @ @ @ @ @ @ @ @ @ @ @ $.$.$.$.$.$.$.$.$.$.$.$.%.%.<.<.<.<.<.<.[.[.[.[.}.}.}.}.@ @ @ @ @ @ @ - @ @ @ @ @ @ @ @ @ @ - - @ ",
"@ @ @ @ @ @ @ @ @ @ @ @ @ @ @ @ @ @ @ @ @ @ @ @ @ @ @ @ @ @ @ @ @ @ @ @ @ @ @ @ @ @ @ @ @ @ @ @ @ @ @ @ @ @ @ @ @ @ @ @ @ @ @ @ "};
